<svg id="Layer_1" data-name="Layer 1" xmlns="http://www.w3.org/2000/svg" viewBox="0 0 155.85 155.85"><defs><style>.cls-1{opacity:0.3;}.cls-2{fill:none;}.cls-3{fill:#e3e3e3;}.cls-4{fill:#b6b7b7;}.cls-5{fill:#e9e8e8;}.cls-6{fill:#9b9a9a;}</style></defs><title>hammers</title><g class="cls-1"><polygon class="cls-2" points="0 0 0 2.35 2.35 0 0 0"/><path class="cls-2" d="M25.15,154.37l-.19-.18-.07-.07-.13-.12-.09-.08-.11-.11-.09-.09,0,0c-.32.35-1.09,1.15-2.18,2.17h4.62c-.24-.17-.66-.53-1.19-1Z"/><path class="cls-2" d="M.19,88.45,0,88.33v.82l.29-.37A1.09,1.09,0,0,1,.19,88.45Z"/><path class="cls-2" d="M135.93,3.42c.45-.35,1.84-1.78,3.38-3.42h-11c2.29,2.14,4.86,4.47,5.81,4.61C134.67,4.67,135.58,3.7,135.93,3.42Z"/><path class="cls-2" d="M25.49,113.06a2.41,2.41,0,1,1,3.39-3.39l1.54,1.54,1.44-1.44L44.91,96.72a1,1,0,0,1,1.42,1.42L33.28,111.2l-1.44,1.44,1.4,1.4a2.41,2.41,0,1,1-3.39,3.39Zm8.73-37.37c0-.65,1.47-2.23,2.45-2.53a.56.56,0,0,1,.34,0,6.25,6.25,0,0,1,3.5-.66c2.19.28,4.27,1.81,4.19,2s-3-1.09-5.57.67l0,.13h0a.79.79,0,0,1,0,.11v0a.51.51,0,0,1,0,.1.85.85,0,0,1,0,.14c.36.35,1.17,1.22,1.12,1.84.76.74,2,2,3.59,3.7a55.38,55.38,0,0,0,4.71,4.53l.13-.06C50.37,87,61.31,97.67,61.77,98.31a1.2,1.2,0,0,1,.22.85h0s0,.08,0,.12h0a2,2,0,0,1-.17.49l0,0-.05.1,0,0-.06.1,0,0-.12.16,0,.06-.06.07-.06.06-.05.06-.07.07,0,0-.13.11,0,0-.08.06,0,0-.08.05-.06,0-.07,0-.06,0-.07,0-.07,0-.06,0-.09,0-.05,0-.14,0h0l-.11,0h-.46l-.08,0H59.4l-.08,0,0,0-.08,0,0,0L59,101c-2.94-2.34-12.46-13.2-12.46-13.2l.12-.19c-1.51-1.87-6.18-6.42-8-8.2h-.26a6.13,6.13,0,0,1-1.76-1.21.92.92,0,0,1-.32.07c-.28.5-1.56,2.72-2.2,2.58S31.36,79,31.6,78.05c.2-.84,2.09-1.83,2.66-2.11A1,1,0,0,1,34.21,75.69ZM32.3,50.39l0,0,1.95,2,.17.15L48.7,67l.06,0,9.18,9.22c-.33,2.09-2.07,1.55-2.07,1.55L46,67.72l.11,0-9.51-9.58h0l-.81-.82-3.11-3.13a2.21,2.21,0,0,1-.18-.21l-2.24-2.27c-.3-.16-.74-.2-1.19.38-.84,1.07-5.53,7.47-5.53,7.47l-1.84,2.63-.52-.52s3.65-8.09,6.32-11.14a48.48,48.48,0,0,1,4.51-4.44s3.64-1.91,4.09-1.84l.44.43s-3.37,1.81-4.14,2.3A2.1,2.1,0,0,0,32.3,50.39Zm33.44-14c0-.61,1.37-2.07,2.27-2.35a.52.52,0,0,1,.31,0,5.8,5.8,0,0,1,3.25-.61c2,.26,4,1.68,3.89,1.87s-2.81-1-5.17.62l0,.12h0a.73.73,0,0,1,0,.1v0a.47.47,0,0,1,0,.1.79.79,0,0,1,0,.13c.33.33,1.08,1.13,1,1.7.7.68,1.9,1.88,3.33,3.44a51.42,51.42,0,0,0,4.37,4.2l.12-.06c1.57,1.15,11.72,11.07,12.15,11.66a1.11,1.11,0,0,1,.2.79h0s0,.07,0,.11h0a1.82,1.82,0,0,1-.16.46l0,0-.05.09,0,0L91.2,59l0,0-.11.15,0,.05L91,59.3l-.05.06-.05.05-.07.07,0,0-.12.1,0,0-.08.06,0,0-.07,0-.05,0-.07,0-.06,0-.06,0-.07,0L90,60,90,60l0,0-.13,0h0l-.11,0h-.55l-.07,0,0,0-.07,0,0,0-.1-.07c-2.73-2.17-11.56-12.25-11.56-12.25l.12-.17c-1.4-1.73-5.74-6-7.45-7.61h-.24A5.69,5.69,0,0,1,68,38.79a.7.7,0,0,1-.41.05l-.16-.06-.31.13-.28.15-.24.15a2.21,2.21,0,0,0-.43.39l-.06.08-.1.15L66,40l0,.07,0,.13a1.28,1.28,0,0,0,0,.18h0l0,0,0,0,0,0,0,0,0,0v0l0,0v0h0v0a.24.24,0,0,1,0,.07.46.46,0,0,1,0,.08v0l0,.09,0,.1-.09.15-.07.1-.12.14-.13.13-.09.07-.09.06a.43.43,0,0,1-.36.06l0,0-.11-.06-.29-.2-.17-.13c-.18-.14-.37-.31-.56-.49l-.19-.18-.18-.18-.17-.18-.08-.09a4.55,4.55,0,0,1-.32-.39.81.81,0,0,1-.15-.28c-.08-.43.62-1.12,1.05-1.14a.52.52,0,0,1,.22.12,2.89,2.89,0,0,0,1.81-1.87A1,1,0,0,1,65.74,36.39ZM85.87,37.8l4.27-4.28,1.57,1.57L87.42,39.4a.08.08,0,0,1-.11,0s0-.1-.13-.06a43.57,43.57,0,0,0-3.44,3.28c-.25.4,1.3,1.85,2,2.65.05.05.05.09,0,.15l-.27.27a.11.11,0,0,1-.16,0c-.62-.45-4.48-3.32-5.68-6.47.83.75,2.33,2.25,2.77,2.32.17,0,.47-.3.59-.4.39-.3,2.89-3,2.91-3.11S85.77,37.91,85.87,37.8Zm12,8.44L110.5,58.88l.38-.38,18,18-2.65,2.65-18-18,.38-.38L95.95,48.11h0c-.59-.4-2-1.16-2.78-.47l-1.81,1.81.64.64L89.78,52.3,86.53,49l2.21-2.21.49.49,1.6-1.6c-.12-.3-.42-1.5,1.31-3.14,2-1.9,4.47-1.69,5.34-1.8s6.76.69,6.76.69.49.52-.38.6c-1.44.12-6-.19-6.8.33S96.87,44.75,97.85,46.24ZM133,77.81l1.54-1.54,5.31,5.31s2.07,3,2.33,3.45-.12.51-.32.44-3.55-2.34-3.55-2.34l-.72-.72-19,19-1.83-1.83,19-19Zm-13.27,43.78c-.38-.46-2.06-2.09-3.81-3.75-2.1-2-4.29-4-4.41-4.05-.32-.12-.24.41-.55.12L99.6,102.54l3.32-3.32,11.48,11.42a.19.19,0,0,1,0,.27c-.07.06-.23,0-.12.29s1.94,2.18,4,4.32,4.28,4.44,4.82,4.81c1,.7,4.07-2.6,5.79-4.17.11-.11.2-.1.36,0l.71.71c.13.13.16.24.07.38-.9,1.36-6.73,9.82-13.94,11.81,1.57-1.77,4.75-5,4.78-6C120.86,122.7,120,121.89,119.75,121.59ZM91,132.09a.7.7,0,0,1-.2,0,4.32,4.32,0,0,1-2-1.92.37.37,0,0,1,0-.23,5.12,5.12,0,0,1-.74-2.51,3.84,3.84,0,0,1,1.08-2.78,5.78,5.78,0,0,0,.91,4l.09,0h.16l.1,0c.22-.22.76-.72,1.2-.64.46-.47,1.26-1.28,2.31-2.23a27.47,27.47,0,0,0,2.81-2.95l-.05-.1c.74-1.09,7.37-7.91,7.78-8.19a.74.74,0,0,1,.58-.08h0l.09,0h0a1.73,1.73,0,0,1,.36.16h0l.07,0,0,0,.07,0,0,0,.13.1,0,0,.05,0,.05,0,0,0,.06.06,0,0,.09.1,0,0,.05.06,0,0,0,.06,0,0,0,.06,0,0,0,.05,0,.05,0,0,0,.06,0,0,0,.1v0l0,.08v0l0,.06v.13s0,0,0,.06v.21l0,.05v0l0,.07c-1.41,1.88-8.28,7.69-8.28,7.69l-.14-.1c-1.19.91-4,3.83-5.12,5h0v.12h0a.29.29,0,0,1,0,0,3.14,3.14,0,0,1-.71,1.14.59.59,0,0,1,.07.31.53.53,0,0,1,0,.12l.12.24.13.22.14.19a2.33,2.33,0,0,0,.33.36l.06.05.12.09.12.07.05,0,.1,0,.14,0h0l0,0h0l0,0H94l.06,0h0l.07,0,.08,0,.12.08.08.06.12.1.11.11.06.08.05.08a.37.37,0,0,1,.08.28v0l0,.08-.13.2-.09.12c-.09.12-.2.25-.32.38l-.12.13-.12.12-.12.11-.06.05a2.44,2.44,0,0,1-.27.21.47.47,0,0,1-.2.09c-.32,0-.9-.56-.95-.89a.3.3,0,0,1,.07-.15A3,3,0,0,0,91,132.09ZM65,131.36l-1.7,1.7-5.87-5.87s-2.29-3.3-2.58-3.82.13-.57.36-.48,3.92,2.59,3.92,2.59l.8.8,21-21,2,2-21,21ZM56.19,107h0a8.22,8.22,0,0,1,.87-.8h.08v0h0v0h0v.33h0l0,0V107h0v0h0v0h0v0h0v0h0v0h0v0h0v0h0v0a.09.09,0,0,1,0,0,6.09,6.09,0,0,1-1.38,1.43,2.08,2.08,0,0,1-1.15-.36h0l0,0,0,0,.14-.16,0,0,.1-.11.08-.08.12-.13.22-.23,0,0c-.18-.17-.61-.59-1.17-1.19A16,16,0,0,0,53.17,105l0,0c-.49-.36-3.64-3.44-3.78-3.63a.35.35,0,0,1-.06-.24h0v0h0a.57.57,0,0,1,0-.14h0l0,0h0l0,0h0l0,0v0l0,0,0,0,0,0,0,0h0l0,0h0l0,0h0l0,0h.47l0,0c.85.68,3.6,3.81,3.6,3.81l0,.05C54.2,105.12,55.89,106.75,56.19,107ZM66.52,71.28,79.37,58.41l4.72,4.72-12.9,13a.24.24,0,0,1-.35,0c-.09-.09-.08-.29-.39-.19s-9.59,8.63-10.36,9.89,3.91,5.57,6.16,8c.16.16.16.28,0,.45l-.8.8a.32.32,0,0,1-.47,0c-1.86-1.34-13.5-10-17.09-19.49,2.48,2.26,7,6.77,8.34,7,.52.06,1.43-.91,1.77-1.2,1.16-.91,8.69-9.09,8.76-9.35S66.2,71.63,66.52,71.28ZM93.95,56.34l2.21-2.21,7.61,7.61s3,4.28,3.34,4.94-.17.74-.46.63-5.08-3.36-5.08-3.36l-1-1L73.27,90.16l-2.62-2.62L97.91,60.29Zm15.13,40.86a17.79,17.79,0,0,1,1.39,1.49,0,0,0,0,1,0,0h-.75l-.07,0h-.79a13.17,13.17,0,0,1-2.46-2.39,2.71,2.71,0,0,1,.36-1.73h0l.05,0,.07.05.28.25,0,0,.19.18.14.13.22.21.4.39,0,0c.23-.24.81-.85,1.64-1.6a17.5,17.5,0,0,0,1.79-1.88l0-.06c.47-.69,4.69-5,5-5.22a.47.47,0,0,1,.37-.05H117a1.1,1.1,0,0,1,.23.1h0l0,0h0l0,0h0l.08.06,0,0,0,0,0,0,0,0,0,0,0,0,.06.06v0l0,0,0,0,0,0,0,0,0,0,0,0,0,0,0,0,0,0,0,0v0l0,.06h0l0,.05v.15s0,0,0,0v.18l0,0a63.76,63.76,0,0,1-5.28,4.9l-.09-.07c-.87.67-3.1,3-3.49,3.42Zm3.48-15.69L93.13,100.93,95,102.8a3.23,3.23,0,1,1-4.54,4.54l-5.85-5.85A3.23,3.23,0,1,1,89.15,97L91.22,99l19.43-19.43a1.36,1.36,0,0,1,1.91,1.91Zm-7.11-3.67h0l-.07,0,0,0,0,0,0,0,0,0h0l0,0H105a8.25,8.25,0,0,1-1.36-1.11l-.52-.47-.19-.18-.07-.07-.13-.12L102.6,76l-.11-.11-.09-.09,0,0c-.41.43-1.5,1.58-3.07,3A32.49,32.49,0,0,0,96,82.23l.06.11c-.87,1.29-8.71,9.36-9.21,9.69a.87.87,0,0,1-.68.1h0l-.1,0h0a2,2,0,0,1-.42-.19l0,0-.09-.05,0,0-.09-.06,0,0-.15-.12-.05,0-.06-.05L85,91.47,85,91.42l-.07-.07,0,0-.1-.12,0,0-.06-.07,0,0L84.58,91l0-.05,0-.07,0-.06,0-.06,0-.06,0-.06,0-.07,0,0,0-.12v0l0-.1v0l0-.08V90s0,0,0-.07v-.25l0-.06v0l.05-.09c1.67-2.22,9.79-9.1,9.79-9.1l.16.12C95.86,79.3,100,75,100.72,74.2h0l-.29-.3-.28-.28-.4-.4L99.5,73l-.23-.24-.11-.12a5.66,5.66,0,0,1-.9-1.07.24.24,0,0,1,0-.1.8.8,0,0,1,.06-.14,3.1,3.1,0,0,1,.3-.44l0,0a7,7,0,0,1,2.1-1.88h.13l0,0h0l0,0,0,0,0,0h0l0,0h0c1.37,1.08,6.23,6,6.32,6.48S106.22,77.35,105.45,77.83ZM65.22,104.11l.17.12C67,103,71.27,98.53,72,97.75l0,0a33.76,33.76,0,0,1-2.63-2.82.06.06,0,0,1,0,0h0v0h0l0,0h0l0,0h0l0,0h0l0,0h0l0,0h0l.05,0h0l.06,0h0l.06,0h0l.07,0h0l.07,0h0l.08,0h0l.08,0h.05l.09,0h0l.1,0h0l.13,0H71l.08,0h1.29c.84.25,4.15,3.82,4.66,4.53.35.5-.39,3.31-.68,3.27h0l-.1-.07-.13-.1-.52-.47-.09-.09-.35-.33-.26-.25-.42-.4-.75-.74-.08-.08c-.43.46-1.53,1.61-3.12,3A33.2,33.2,0,0,0,67.14,106l.07.12c-.89,1.32-8.9,9.56-9.4,9.9a.89.89,0,0,1-.7.1h0l-.1,0h0a2.09,2.09,0,0,1-.43-.19l0,0-.09-.06,0,0-.09-.06,0,0-.15-.12-.05,0-.06-.05-.06-.06-.05-.05-.07-.07,0,0-.11-.12,0,0-.06-.08,0,0-.05-.07,0-.05,0-.07,0-.06,0-.06,0-.06,0-.06,0-.08,0,0,0-.12v0l0-.1v0l0-.08v-.16s0,0,0-.07v-.15l0-.06v0l0-.06v0l.05-.09C56.92,111.14,65.22,104.11,65.22,104.11Zm17.07,18.17,8.3-8.3-.8-.8a1.38,1.38,0,1,1,1.94-1.94l2.5,2.5a1.38,1.38,0,1,1-1.94,1.94l-.88-.88-8.3,8.3a.58.58,0,0,1-.82-.82Zm43.83-35.72A23.24,23.24,0,0,1,124,88.69a12.71,12.71,0,0,1-2,.88l-.21-.21s1.62-.87,2-1.1a1,1,0,0,0,.07-1.64l0,0-.93-.94-.08-.07L116,78.67h0l-4.4-4.42c.16-1,1-.74,1-.74l4.71,4.79h-.05l4.56,4.59h0l.39.39,1.49,1.5.09.1L124.8,86c.14.08.35.1.57-.18.4-.51,2.65-3.58,2.65-3.58l.88-1.26.25.25A30.41,30.41,0,0,1,126.13,86.56ZM64,58.15l.17.12c1.53-1.17,5.31-5.1,6.42-6.27v0l0-.08,0,0,0-.07,0-.05,0-.07,0-.05,0-.06v-.42s0,0,0-.06v0s0,0,0-.06v-.09l-.1-.13-.14-.16-.2-.19-.2-.17-.13-.1-.06,0L69.36,50l-.12-.08h0l0,0h0l0,0h0L69,50h-.1a3.52,3.52,0,0,1-1.14-.77l-.16-.15L67.51,49l-.13-.16-.11-.16-.09-.15a1,1,0,0,1-.06-.15.66.66,0,0,1,0-.14.44.44,0,0,1,0-.13,2.91,2.91,0,0,1,.6-1l.14-.17.31-.32.24-.21.16-.12a1.06,1.06,0,0,1,.57-.22c.65,0,2.06,1.43,2.17,1.75a.61.61,0,0,1-.14.44A2,2,0,0,0,72,49.28h0l.1,0h.66l.13,0h0l.14,0h0a4.44,4.44,0,0,1,.88.46h0l.18.18a2.73,2.73,0,0,1,.74,2.71,2.46,2.46,0,0,0,.67.67h.27l.17,0h0l.08,0h0l.08,0h0l.1.05,0,0,0,0h0a1.24,1.24,0,0,1,.49.58,1.2,1.2,0,0,1-.48,1.61h0l-.08,0h0l-.12,0h0l-.26,0h-.16l-.12,0h0l-.13,0h0l-.13-.05-.17-.09-.22-.16a1.35,1.35,0,0,1-.17-.17,1.07,1.07,0,0,1-.16-.25.94.94,0,0,1,0-.13l0-.07v-.07a1,1,0,0,1,0-.13,1,1,0,0,1,0-.1,2.17,2.17,0,0,0-.27-.32L74,54l-.24-.19a2.11,2.11,0,0,1-.42.05H73l-.15,0h0l-.15,0h0l-.14,0h0l-.14,0h0l-.12,0c-.53.55-1.54,1.58-2.9,2.8A33.2,33.2,0,0,0,65.9,60l.07.12c-.89,1.32-8.9,9.56-9.4,9.9a.89.89,0,0,1-.7.1h0l-.1,0h0a2.1,2.1,0,0,1-.43-.19l0,0-.09-.06,0,0-.09-.06,0,0-.15-.12-.05,0-.06-.05-.06-.06-.05-.05-.07-.07,0,0-.11-.12,0,0-.06-.08,0,0L54.27,69l0-.05,0-.07,0-.06,0-.06,0-.06,0-.06,0-.08,0,0,0-.12v0l0-.1v0l0-.08V68s0,0,0-.07v-.15l0-.06v0l0-.06v0l.05-.09C55.69,65.18,64,58.15,64,58.15Zm-3.41-11.4L50.35,57l1,1a1.7,1.7,0,1,1-2.39,2.39l-3.08-3.08a1.7,1.7,0,1,1,2.39-2.39L49.35,56,59.57,45.75a.72.72,0,0,1,1,1ZM49.5,116.65a1,1,0,0,1-.14-.22l0-.12v-.12a.85.85,0,0,1,0-.12.88.88,0,0,1,0-.09,2,2,0,0,0-.24-.28l-.22-.2-.22-.17a1.9,1.9,0,0,1-.38,0h-.32l-.13,0h0l-.14,0h0l-.13,0h0l-.12,0h0l-.11,0c-.47.5-1.38,1.42-2.61,2.52a29.26,29.26,0,0,0-2.4,2.44c-.29.33-.51.59-.64.76l.06.1c-.8,1.18-8,8.59-8.45,8.89a.8.8,0,0,1-.63.09h0l-.09,0h0a1.88,1.88,0,0,1-.39-.17l0,0-.08-.05,0,0-.08-.05,0,0-.14-.11,0,0-.05,0-.05-.05,0,0-.06-.06,0,0-.09-.11,0,0L31.2,129l0,0,0-.06,0,0,0-.06,0-.05,0-.06,0-.06,0-.05,0-.07,0,0,0-.11v0l0-.09v0l0-.07V128s0,0,0-.06v-.23l0-.06v0l0-.08c1.53-2,9-8.35,9-8.35l.15.11c.21-.16.47-.38.76-.64,1.6-1.44,4.16-4.1,5-5v0l0-.07,0,0,0-.06,0,0,0-.06,0,0,0-.06v-.46s0,0,0-.05v-.08l-.09-.12-.13-.15-.18-.17-.18-.15-.12-.09-.06,0-.11-.07-.11-.07h0l0,0h0l0,0h-.16a3.16,3.16,0,0,1-1-.69l-.14-.14L43,111l-.12-.14-.1-.14-.08-.14a.93.93,0,0,1-.05-.13.6.6,0,0,1,0-.13.4.4,0,0,1,0-.12,2.61,2.61,0,0,1,.54-.93l.13-.15.28-.28.21-.18.14-.1a1,1,0,0,1,.51-.2c.58,0,1.85,1.28,1.95,1.57a.55.55,0,0,1-.13.39,1.76,1.76,0,0,0,.8,1h0l.09,0h.6l.12,0h0l.13,0h0a4,4,0,0,1,.79.41h0l.17.16a2.46,2.46,0,0,1,.67,2.43,2.21,2.21,0,0,0,.6.6h.24l.15,0h0l.07,0h0l.07,0h0l.09,0,0,0,0,0h0a1.11,1.11,0,0,1,.44.52,1.08,1.08,0,0,1-.43,1.45h0l-.07,0h0l-.11,0h0l-.24,0h-.14l-.11,0h0l-.12,0h0L50,117l-.16-.08-.2-.14Zm34.25,33.48v.07h0a1.15,1.15,0,0,1-.1.29v0l0,.06v0l0,.06v0l-.07.1,0,0,0,0,0,0,0,0,0,0,0,0-.07.06,0,0,0,0,0,0,0,0,0,0,0,0,0,0,0,0,0,0,0,0,0,0h0l-.08,0h-.43l0,0h0l0,0h0l-.07,0c-1.73-1.38-7.32-7.76-7.32-7.76l.07-.11c-.95-1.17-4-4.13-4.91-5h0l-.05,0h-.69l-.08.06-.1.09-.12.13-.1.13-.06.08,0,0,0,.08,0,.08h0l0,0v0l0,0h0l0,0h0v0h0a.12.12,0,0,1,0,0,1.81,1.81,0,0,1-.45.73l-.09.1-.1.09-.1.08-.1.07-.1,0-.1,0h-.1l-.09,0a2.73,2.73,0,0,1-.77-.5l-.13-.12-.25-.24-.16-.18-.09-.12a.94.94,0,0,1-.2-.42c0-.45.84-1.33,1.05-1.38s.18,0,.32.13a1,1,0,0,0,.69-.54v0l0-.07v0l0-.07v-.14s0-.05,0-.08,0,0,0,0,0-.06,0-.08v0s0-.06,0-.09v0l0-.1v0a2.37,2.37,0,0,1,.25-.58h0l.11-.11a1.67,1.67,0,0,1,1.84-.3,1.22,1.22,0,0,0,.42-.42v-.06h0v-.05h0s0,0,0,0h0a.71.71,0,0,1,0-.12h0v-.05h0l0-.05h0l0-.07v0h0a.63.63,0,0,1,.37-.3,1,1,0,0,1,1.17.47h0l0,.06v0l0,.09h0a.91.91,0,0,1,0,.19h0a.87.87,0,0,1,0,.09h0s0,.06,0,.08h0l0,.09v0l0,.09-.05.11-.09.14-.11.11a.55.55,0,0,1-.16.09l-.09,0h-.26a1.08,1.08,0,0,0-.2.17l-.14.15-.11.15a1.66,1.66,0,0,1,.07.3,1.91,1.91,0,0,1,0,.24h0s0,.07,0,.1h0s0,.07,0,.1h0v.1h0l0,.09h0l0,.08c.43.41,1.23,1.2,2.2,2.26a32.55,32.55,0,0,0,2.77,2.66l.08,0c1,.73,7.42,7,7.69,7.38a.68.68,0,0,1,.12.41.82.82,0,0,1,0,.09Zm10.18-1.07c-.46.3-3.38-.77-3.37-1.06h0l.06-.09.09-.11.42-.47.08-.08.3-.32.22-.23.36-.37.66-.67.07-.07c-.39-.37-1.22-1.17-2.29-2.29l-1.11-1.19a46.68,46.68,0,0,0-4-3.82l-.11.05c-1.43-1-10.64-10.05-11-10.6a1,1,0,0,1-.18-.72h0l0-.1h0a1.65,1.65,0,0,1,.15-.41v0l0-.08,0,0,.05-.08,0,0,.1-.14,0,0,0-.05,0-.05,0,0,.06-.06,0,0,.11-.09,0,0,.07-.05,0,0,.06,0,0,0,.06,0,.05,0,.06,0,.06,0,.05,0,.07,0,0,0,.12,0h0l.1,0h.5l.06,0,0,0,.07,0,0,0,.09.07c2.48,2,10.5,11.13,10.5,11.13l-.11.16c.91,1.12,3.17,3.39,5,5.15,1.09,1.07,2,1.94,2.33,2.26l0,0a24,24,0,0,1,2.53-2.33h.08l0,0,0,0,0,0,0,0,0,0,0,0,0,0,0,0,0,0,0,0,0,.06,0,0,0,.06,0,0,0,.07,0,0,0,.07,0,.05,0,.07,0,.05,0,.08,0,.05,0,.08,0,.05,0,.09,0,0,0,.1v0l0,.14,0,.07,0,.07,0,.08,0,.06,0,.08,0,.06,0,.08,0,.05,0,.08v0l0,.08v0l0,.08v0l0,.08v0l0,.07v0l0,.07v.16h0v.05h0v0a.26.26,0,0,1,0,.06C97.81,145.71,94.6,148.63,93.94,149.06Zm39.86,6.56-9.83-10,.11,0L114.58,136h0l-.81-.82-3.11-3.13a2.2,2.2,0,0,1-.18-.21l-2.24-2.27c-.3-.16-.74-.2-1.19.38-.84,1.07-5.53,7.47-5.53,7.47l-1.84,2.63-.52-.52s3.65-8.09,6.32-11.14A48.48,48.48,0,0,1,110,124s3.64-1.91,4.09-1.84l.44.43s-3.37,1.81-4.14,2.3a2.1,2.1,0,0,0-.15,3.43l0,0,1.95,2,.17.15,14.32,14.43.06,0,9.18,9.22C135.54,156.17,133.8,155.63,133.8,155.63Zm8.12-19.55.17.12c1.53-1.17,5.31-5.1,6.42-6.27v0l0-.08,0,0,0-.07,0-.05,0-.07,0-.05,0-.06V129s0,0,0-.06v-.09l-.1-.13-.14-.16-.2-.19-.2-.17-.13-.1-.06,0-.12-.08-.12-.08h0l0,0h0l0,0h0l-.05,0h-.1a3.52,3.52,0,0,1-1.14-.77l-.16-.15-.14-.16-.13-.16-.11-.16-.09-.15a1,1,0,0,1-.06-.15.66.66,0,0,1,0-.14.44.44,0,0,1,0-.13,2.91,2.91,0,0,1,.6-1l.14-.17.31-.32.24-.21.16-.12a1.06,1.06,0,0,1,.57-.22c.65,0,2.06,1.43,2.17,1.75a.61.61,0,0,1-.14.44,2,2,0,0,0,.89,1.09h0l.1,0h.66l.13,0h0l.14,0h0a4.44,4.44,0,0,1,.88.46h0l.18.18a2.73,2.73,0,0,1,.74,2.71,2.46,2.46,0,0,0,.67.67h.27l.17,0h0l.08,0h0l.08,0h0l.1.05,0,0,0,0h0a1.24,1.24,0,0,1,.49.58,1.2,1.2,0,0,1-.48,1.61h0l-.08,0h0l-.12,0h0l-.26,0h-.16l-.12,0h0l-.13,0h0l-.13-.05-.17-.09-.22-.16a1.36,1.36,0,0,1-.17-.17,1.07,1.07,0,0,1-.16-.25.94.94,0,0,1,0-.13l0-.07v-.07a.94.94,0,0,1,0-.13,1,1,0,0,1,0-.1,2.17,2.17,0,0,0-.27-.32l-.25-.22-.24-.19a2.11,2.11,0,0,1-.42.05h-.36l-.15,0h0l-.15,0h0l-.14,0h0l-.14,0h0l-.12,0c-.53.55-1.54,1.58-2.9,2.8a33.2,33.2,0,0,0-3.39,3.56l.07.12c-.89,1.32-8.9,9.56-9.4,9.9a.89.89,0,0,1-.7.1h0l-.1,0h0a2.1,2.1,0,0,1-.43-.19l0,0-.09-.06,0,0-.09-.06,0,0-.15-.12-.05,0-.06-.05-.06-.06-.05-.05-.07-.07,0,0-.11-.12,0,0-.06-.08,0,0-.05-.07,0-.05,0-.07,0-.06,0-.06,0-.06,0-.06,0-.08,0,0,0-.12v0l0-.1v0l0-.08v-.16s0,0,0-.07v-.15l0-.06v0l0-.06v0l.05-.09C133.61,143.11,141.91,136.08,141.91,136.08Zm-4.41-12.4a.72.72,0,0,1,1,1l-10.22,10.22,1,1a1.7,1.7,0,1,1-2.39,2.39l-3.08-3.08a1.7,1.7,0,1,1,2.39-2.39l1.09,1.09ZM142,96.21c.35.5-.39,3.31-.68,3.27h0l-.1-.07-.13-.1-.52-.47-.09-.09-.35-.33-.26-.25-.42-.4-.75-.74-.08-.08c-.43.46-1.53,1.61-3.12,3a33.21,33.21,0,0,0-3.39,3.56l.07.12c-.89,1.32-8.9,9.56-9.4,9.9a.89.89,0,0,1-.7.1h0l-.1,0h0a2.09,2.09,0,0,1-.43-.19l0,0-.09-.06,0,0-.09-.06,0,0-.15-.12-.05,0L121,113l-.06-.06-.05,0h0l-.07-.07,0,0-.11-.12,0,0-.06-.08,0,0-.05-.07,0-.05,0-.07,0-.06,0-.06,0-.06,0-.06,0-.08,0,0,0-.12v0l0-.1v0l0-.08v-.16s0,0,0-.07v-.15l0-.06v0l0-.06v0l.05-.09c1.7-2.27,10-9.3,10-9.3l.17.12c1.65-1.26,5.88-5.7,6.62-6.48l0,0a33.74,33.74,0,0,1-2.63-2.82.06.06,0,0,1,0,0h0v0h0l0,0h0l0,0h0l0,0h0l0,0h0l0,0h0l.05,0h0l.06,0h0l.06,0h0l.07,0h0l.07,0h0l.08,0h0l.08,0h.05l.09,0h0l.1,0h0l.13,0H136l.08,0h1.29a11.54,11.54,0,0,1,2.56,2.2A29.39,29.39,0,0,1,142,96.21ZM129.47,58.67a69,69,0,0,0,5.87,5.64l.16-.08c2.11,1.55,15.72,14.84,16.3,15.64a1.49,1.49,0,0,1,.27,1.06v0c0,.05,0,.1,0,.15h0a2.44,2.44,0,0,1-.22.61l0,0-.07.12,0,0-.07.12,0,0-.15.21-.06.07-.07.08-.07.08-.07.07-.09.09-.06.06-.16.14,0,0-.1.08-.06,0-.1.07-.07,0-.09.06-.08,0-.09,0-.09,0-.08,0-.11,0-.07,0-.17.05h0l-.14,0H149l-.1,0-.06,0-.1,0-.06,0-.1-.05,0,0-.14-.1c-3.66-2.92-15.5-16.44-15.5-16.44l.16-.23c-2.13-2.63-9.3-9.53-10.7-10.88a50.46,50.46,0,0,1-4.63,4.44c-.52.17-3.14-2.71-3.13-3.13v0h0v-.06l0,0h0l0,0h0l0,0h0l0-.06h0l.05-.07h0a65.49,65.49,0,0,1,6.89-6.83s2.26-1.32,3.95-2.09c.87-.39,1.58-.64,1.75-.48h0a.23.23,0,0,1,0,.14.93.93,0,0,1,0,.22v.07l0,.15a9,9,0,0,1-.46,1.15l-.29.61c-.69,1.39-1.6,2.93-1.81,3.28l0,0h0v0h0a2,2,0,0,1-.38.53C125.13,54.17,127.06,56,129.47,58.67Zm13.68-32.48.17.12c1.65-1.26,5.88-5.7,6.62-6.48l0,0A33.76,33.76,0,0,1,147.27,17a.06.06,0,0,1,0,0h0v0h0l0,0h0l0,0h0l0,0h0l0,0h0l0,0h0l.05,0h0l.06,0h0l.06,0h0l.07,0h0l.07,0h0l.08,0h0l.08,0h.05l.09,0h0l.1,0h0l.13,0H149l.07,0h1.29c.84.25,4.15,3.82,4.66,4.53.35.5-.39,3.31-.68,3.27h0l-.1-.07-.13-.1-.52-.47-.09-.09-.35-.33-.26-.25-.42-.4-.75-.74-.08-.08c-.43.46-1.53,1.61-3.12,3A33.19,33.19,0,0,0,145.06,28l.07.12c-.89,1.32-8.9,9.56-9.4,9.9a.89.89,0,0,1-.7.1h0l-.1,0h0a2.09,2.09,0,0,1-.43-.19l0,0-.09-.06,0,0-.09-.06,0,0-.15-.12-.05,0-.06-.05-.06-.06-.05-.05-.07-.07,0,0-.11-.12,0,0-.06-.08,0,0-.05-.07,0-.05,0-.07,0-.06,0-.06,0-.06,0-.06,0-.08,0,0,0-.12v0l0-.1v0l0-.08V36s0,0,0-.07v-.15l0-.06v0l0-.06v0l.05-.09C134.85,33.21,143.15,26.18,143.15,26.18Zm-15.93-2.93v0h0a.57.57,0,0,1,0-.14h0l0,0h0l0,0h0l0,0v0l0,0,0,0,0,0,0,0h0l0,0h0l0,0h0l0,0H128l0,0c.85.68,3.6,3.81,3.6,3.81l0,.05c.5.62,2.2,2.25,2.49,2.53h0a8.22,8.22,0,0,1,.87-.8h.08v0h0v0h0v.33h0l0,0v.26h0v0h0v0h0v0h0v0h0v0h0v0h0v0h0v0a.09.09,0,0,1,0,0A6.09,6.09,0,0,1,134,30.81a2.08,2.08,0,0,1-1.15-.36h0l0,0,0,0,.14-.16,0,0,.1-.11.08-.08.12-.13.22-.23,0,0c-.18-.17-.61-.59-1.17-1.19a16,16,0,0,0-1.36-1.31l0,0c-.49-.36-3.64-3.44-3.78-3.63a.35.35,0,0,1-.06-.24ZM125,33.32h0l.09,0h.6l.12,0h0l.13,0h0a4,4,0,0,1,.79.41h0l.16.16a2.45,2.45,0,0,1,.67,2.43,2.21,2.21,0,0,0,.6.6h.24l.15,0h0l.07,0h0l.07,0h0l.09,0,0,0,0,0h0a1.11,1.11,0,0,1,.44.52,1.08,1.08,0,0,1-.43,1.45h0l-.07,0h0l-.11,0h0l-.24,0h-.14l-.11,0h0l-.12,0h0l-.12,0-.16-.08-.2-.14-.15-.15a1,1,0,0,1-.14-.22l0-.12v-.12a.85.85,0,0,1,0-.12.9.9,0,0,1,0-.09,2,2,0,0,0-.24-.28l-.22-.2-.22-.17a1.9,1.9,0,0,1-.38,0h-.32l-.13,0h0l-.14,0h0l-.13,0h0l-.12,0h0l-.11,0c-.47.5-1.38,1.42-2.61,2.52a29.27,29.27,0,0,0-2.4,2.44c-.29.33-.51.59-.64.76l.06.1c-.8,1.18-8,8.59-8.45,8.89a.8.8,0,0,1-.63.09h0l-.09,0h0a1.88,1.88,0,0,1-.39-.17l0,0-.08-.05,0,0-.08-.05,0,0-.14-.11,0,0-.05,0-.05-.05,0,0-.06-.06,0,0-.09-.11,0,0-.05-.07,0,0,0-.06,0,0,0-.06,0-.05,0-.06,0-.06,0-.05,0-.07,0,0,0-.11v0l0-.09v0l0-.07V50.1s0,0,0-.06v-.23l0-.06v0l0-.08c1.53-2,9-8.35,9-8.35l.15.11c.21-.16.47-.38.76-.64,1.6-1.44,4.16-4.1,5-5v0l0-.07,0,0,0-.06,0,0,0-.06,0,0,0-.06V34.9s0,0,0-.05v-.08l-.09-.12-.13-.15-.18-.17-.18-.15-.12-.09-.06,0-.11-.07-.11-.07h0l0,0h0l0,0h-.16a3.16,3.16,0,0,1-1-.69l-.14-.14-.13-.14-.12-.14-.1-.14-.08-.14a.93.93,0,0,1-.05-.13.59.59,0,0,1,0-.13.4.4,0,0,1,0-.12,2.61,2.61,0,0,1,.54-.93l.13-.15.28-.28.21-.18.14-.1a1,1,0,0,1,.51-.2h0c.58,0,1.85,1.28,1.95,1.57a.55.55,0,0,1-.13.39A1.76,1.76,0,0,0,125,33.32ZM122.84,18.8a1,1,0,0,1,1.42,1.42L111.2,33.28l-1.44,1.44,1.4,1.4a2.41,2.41,0,1,1-3.39,3.39l-4.36-4.36a2.41,2.41,0,1,1,3.39-3.39l1.54,1.54,1.44-1.44ZM102.79,3.44S110,7.32,112.86,9.88a57.62,57.62,0,0,1,4.21,4.26,29.36,29.36,0,0,1,2,3.65l-.33.33s-1.86-3-2.36-3.74-2.12-1.67-2.93-.46l0,0-1.47,1.46-.11.13-9.23,9.15-1.64,1.63,0,.05-7,6.91c-1.81-.48-1.51-1.91-1.51-1.91L100,23.94l0,.1,1-.95,6.26-6.2h0l.62-.61,2.36-2.34.16-.13,1.71-1.68c.11-.24.1-.61-.44-1.05-1-.82-6.88-5.42-6.88-5.42L102.4,3.83ZM99.51,8.35A1.18,1.18,0,0,1,101.18,10l-6.62,6.62L84.25,26.94l1.63,1.63a2.82,2.82,0,1,1-4,4l-5.09-5.09a3,3,0,0,1-.25-4.21,3,3,0,0,1,4.21.25l1.8,1.8L92.9,15ZM80.3,8.7a.94.94,0,0,1,.24,0c.66.06,2.41,1.74,2.83,2.75a.53.53,0,0,1,0,.34,7.33,7.33,0,0,1,1.06,3.6c0,2.17-1.33,4.1-1.55,4s.75-2.93-1.31-5.69l-.12,0h-.23l-.15-.05c-.31.32-1.1,1-1.72.91-.65.68-1.8,1.83-3.32,3.19A39.36,39.36,0,0,0,72,22l.08.14C71,23.66,61.53,33.44,60.93,33.84a1.06,1.06,0,0,1-.83.12h0l-.12,0h0a2.48,2.48,0,0,1-.51-.23l0,0-.11-.07,0,0-.1-.07,0,0-.18-.14-.06-.05-.07-.06-.07-.07-.06-.06L58.59,33,58.54,33l-.13-.14,0,0-.07-.09,0-.05-.06-.08,0-.06-.05-.08,0-.07,0-.07,0-.08,0-.07,0-.09,0-.06-.06-.14v0l0-.12v0l0-.09v-.19s0-.05,0-.08,0,0,0-.05,0-.05,0-.08v-.05l0-.07v0l0-.08,0,0,.07-.1c2-2.69,11.86-11,11.86-11l.2.15c1.7-1.31,5.75-5.49,7.33-7.14v-.21a.43.43,0,0,1,0-.06,4.51,4.51,0,0,1,1-1.63,1.09,1.09,0,0,1-.1-.33c-.54-.34-2.92-1.88-2.85-2.51s1.57-2.58,2.6-2.22C78.74,6.09,80,8.1,80.3,8.7ZM42.11,33.43v-.11l0-.06v0l0-.06v0l.05-.09c1.7-2.27,10-9.3,10-9.3l.17.12c1.65-1.26,5.88-5.7,6.62-6.48l0,0a33.74,33.74,0,0,1-2.63-2.82.06.06,0,0,1,0,0h0v0h0l0,0h0l0,0h0l0,0h0l0,0h0l0,0h0l.05,0h0l.06,0h0l.06,0h0l.07,0h0l.07,0h0l.08,0h0l.08,0h.05l.09,0h0l.1,0h0l.13,0h.13l.08,0h1.29A11.54,11.54,0,0,1,62,15.95a29.39,29.39,0,0,1,2.1,2.33c.35.5-.39,3.31-.68,3.27h0l-.1-.07-.13-.1-.52-.47-.09-.09-.35-.33-.26-.25-.42-.4-.75-.74L60.67,19c-.43.46-1.53,1.61-3.12,3a33.2,33.2,0,0,0-3.39,3.56l.07.12c-.89,1.32-8.9,9.56-9.4,9.9a.89.89,0,0,1-.7.1h0l-.1,0h0a2.09,2.09,0,0,1-.43-.19l0,0-.09-.06,0,0-.09-.06,0,0-.15-.12-.05,0L43,35.1,43,35l-.05,0h0l-.07-.07,0,0-.11-.12,0,0-.06-.08,0,0-.05-.07,0-.05,0-.07,0-.06,0-.06,0-.06,0-.06,0-.08,0,0,0-.12v0l0-.1v0l0-.08v-.16s0,0,0-.07ZM38.62,9.63A.47.47,0,0,1,39,9.58h.07a1.1,1.1,0,0,1,.23.1h0l0,0h0l0,0h0l.08.06,0,0,0,0,0,0,0,0,0,0,0,0,.06.06v0l0,0,0,0,0,0,0,0,0,0,0,0,0,0,0,0,0,0,0,0v0l0,.06h0l0,.05v.15s0,0,0,0v.18l0,0a63.77,63.77,0,0,1-5.28,4.9l-.09-.07c-.87.67-3.1,3-3.49,3.42l0,0a17.79,17.79,0,0,1,1.39,1.49,0,0,0,0,1,0,0h-.75l-.07,0h-.79a13.17,13.17,0,0,1-2.46-2.39A2.71,2.71,0,0,1,28.83,17h0l.05,0,.07.05.28.25,0,0,.19.18.14.13.22.21.4.39,0,0c.23-.24.81-.85,1.64-1.6a17.5,17.5,0,0,0,1.79-1.88l0-.06C34.14,14.16,38.36,9.81,38.62,9.63ZM6.39,18.74a3.43,3.43,0,0,1,4.83.29l2.07,2.07L32.72,1.67a1.28,1.28,0,0,1,1.8.11,1.28,1.28,0,0,1,.11,1.8L15.2,23l1.87,1.87a3.43,3.43,0,0,1,.29,4.83,3.43,3.43,0,0,1-4.83-.29L6.68,23.57A3.43,3.43,0,0,1,6.39,18.74ZM5.18,45.17a.58.58,0,0,1-.82-.82l8.3-8.3-.8-.8a1.38,1.38,0,1,1,1.94-1.94l2.5,2.5a1.38,1.38,0,1,1-1.94,1.94l-.88-.88Zm7.86,9a.7.7,0,0,1-.2,0,4.32,4.32,0,0,1-2-1.92.37.37,0,0,1,0-.23,5.12,5.12,0,0,1-.74-2.51,3.84,3.84,0,0,1,1.08-2.78,5.78,5.78,0,0,0,.91,4l.09,0h.16l.1,0c.22-.22.76-.72,1.2-.64.46-.47,1.26-1.28,2.31-2.23a27.47,27.47,0,0,0,2.81-2.95l-.05-.1c.74-1.09,7.37-7.91,7.78-8.19a.74.74,0,0,1,.58-.08h0l.09,0h0a1.73,1.73,0,0,1,.36.16h0l.07,0,0,0,.07,0,0,0,.13.1,0,0,.05,0,.05,0,0,0,.06.06,0,0,.09.1,0,0,.05.06,0,0,0,.06,0,0,0,.06,0,0,0,.05,0,.05,0,0,0,.06,0,0,0,.1v0l0,.08v0l0,.06v.13s0,0,0,.06v.21l0,.05v0l0,.07c-1.41,1.88-8.28,7.69-8.28,7.69l-.14-.1c-1.19.91-4,3.83-5.12,5h0v.12h0a.29.29,0,0,1,0,0,3.14,3.14,0,0,1-.71,1.14.59.59,0,0,1,.07.31.53.53,0,0,1,0,.12l.12.24.13.22.14.19a2.33,2.33,0,0,0,.33.36l.06.05.12.09.12.07.05,0,.1,0,.14,0h0l0,0h0l0,0h.14l.06,0h0l.07,0,.08,0,.12.08.08.06.12.1.11.11.06.08.05.08a.37.37,0,0,1,.08.28v0l0,.08-.13.2-.09.12c-.09.12-.2.25-.32.38l-.12.13-.12.12-.12.11-.06.05a2.44,2.44,0,0,1-.27.21.47.47,0,0,1-.2.09c-.32,0-.9-.56-.95-.89a.3.3,0,0,1,.07-.15A3,3,0,0,0,13,54.17ZM33.6,35.86c-.32-.12-.24.41-.55.12L21.67,24.61,25,21.29,36.47,32.71a.19.19,0,0,1,0,.27c-.07.06-.23,0-.12.29s1.94,2.18,4,4.32S44.61,42,45.16,42.4c1,.7,4.07-2.6,5.79-4.17.11-.11.2-.1.36,0L52,39c.13.13.16.24.07.38-.9,1.36-6.73,9.82-13.94,11.81,1.57-1.77,4.75-5,4.78-6,0-.41-.86-1.22-1.11-1.52-.38-.46-2.06-2.09-3.81-3.75C35.91,37.92,33.72,35.9,33.6,35.86ZM12,88.25a1.16,1.16,0,0,1-.91.13h0l-.14,0h0a2.72,2.72,0,0,1-.57-.25l0,0L10.2,88l0,0L10,87.89l0,0-.2-.16-.07-.06-.08-.07-.08-.07-.07-.07-.09-.09-.06-.06-.14-.15,0,0L9.12,87l0-.06L9,86.85l0-.07L8.9,86.7l0-.07,0-.08,0-.08,0-.08,0-.1,0-.06-.06-.16v0l0-.13v-.05l0-.1v-.21s0-.06,0-.09,0,0,0-.06,0-.06,0-.08v-.06l0-.08v0l0-.08,0,0,.07-.11c2.22-3,13-12.11,13-12.11l.22.17c2.14-1.64,7.62-7.39,8.61-8.43h0l-.39-.39-.37-.37-.53-.54-.33-.34-.31-.32-.15-.16A7.53,7.53,0,0,1,27.21,61a.31.31,0,0,1,0-.13,1.06,1.06,0,0,1,.08-.18,4.12,4.12,0,0,1,.4-.59l0,0c.83-1,2.4-2.5,2.79-2.5h.12l0,0,0,0,0,0,0,0,0,0,0,0,.05,0h0l.05,0h0c1.82,1.43,8.29,7.92,8.4,8.62s-1.56,2.28-2.58,2.92h0l-.09.06,0,0-.06,0,0,0-.05,0,0,0-.05,0h-.25a11,11,0,0,1-1.81-1.48l-.69-.63-.26-.24-.1-.09L33.1,67,33,66.92l-.15-.14-.12-.12-.06-.05c-.54.58-2,2.1-4.09,4a43.22,43.22,0,0,0-4.41,4.64l.09.15C23.07,77.08,12.64,87.82,12,88.25Zm2.57,21,7.53-7.38,0,.1,1-.95,6.26-6.2h0L30,94.2l2.36-2.34.16-.13L34.2,90c.11-.24.1-.61-.44-1.05-1-.82-6.88-5.42-6.88-5.42l-2.41-1.82.39-.39s7.22,3.88,10.08,6.44a57.63,57.63,0,0,1,4.21,4.26,29.36,29.36,0,0,1,2,3.65l-.33.33s-1.86-3-2.36-3.74-2.12-1.67-2.93-.46l0,0L34,93.29l-.11.13-9.23,9.15L23,104.2l0,.05-7,6.91C14.27,110.68,14.56,109.25,14.56,109.25Zm-6.7,14.1-.27.27a.11.11,0,0,1-.16,0c-.62-.45-4.48-3.32-5.68-6.47.83.75,2.33,2.25,2.77,2.32.17,0,.47-.3.59-.4.39-.3,2.89-3,2.91-3.11s-.18-.12-.08-.24l4.27-4.28L13.78,113,9.5,117.33a.08.08,0,0,1-.11,0s0-.1-.13-.06a43.57,43.57,0,0,0-3.44,3.28c-.25.4,1.3,1.85,2,2.65C7.91,123.25,7.91,123.29,7.86,123.35Z"/><path class="cls-3" d="M154.51,101.15a3,3,0,0,0,.25,4.21l1.1,1.1v-6A2.55,2.55,0,0,0,154.51,101.15Z"/><path class="cls-3" d="M154.31,131.47h0l0,0,0,0-.1-.05h0l-.08,0h0l-.08,0h0l-.17,0h-.27a2.46,2.46,0,0,1-.67-.67,2.73,2.73,0,0,0-.74-2.71l-.18-.18h0a4.44,4.44,0,0,0-.88-.46h0l-.14,0h0l-.13,0h-.66l-.1,0h0a2,2,0,0,1-.89-1.09.61.61,0,0,0,.14-.44c-.11-.32-1.52-1.73-2.17-1.75a1.06,1.06,0,0,0-.57.22l-.16.12-.24.21-.31.32-.14.17a2.91,2.91,0,0,0-.6,1,.44.44,0,0,0,0,.13.66.66,0,0,0,0,.14,1,1,0,0,0,.06.15l.09.15.11.16.13.16.14.16.16.15a3.52,3.52,0,0,0,1.14.77h.1l.05,0h0l0,0h0l0,0h0l.12.08.12.08.06,0,.13.1.2.17.2.19.14.16.1.13v.09s0,0,0,.06v.52l0,.06,0,.05,0,.07,0,.05,0,.07,0,0,0,.08v0c-1.11,1.17-4.88,5.1-6.42,6.27l-.17-.12s-8.3,7-10,9.3l-.05.09v0l0,.06v0l0,.06v.15s0,0,0,.07V146l0,.08v0l0,.1v0l0,.12,0,0,0,.08,0,.06,0,.06,0,.06,0,.06,0,.07,0,.05.05.07,0,0,.06.08,0,0,.11.12,0,0,.07.07.05.05.06.06.06.05.05,0,.15.12,0,0,.09.06,0,0,.09.06,0,0a2.1,2.1,0,0,0,.43.19h0l.1,0h0a.89.89,0,0,0,.7-.1c.5-.33,8.51-8.58,9.4-9.9l-.07-.12a33.2,33.2,0,0,1,3.39-3.56c1.37-1.23,2.38-2.25,2.9-2.8l.12,0h0l.14,0h0l.14,0h0l.15,0h0l.15,0h.36a2.11,2.11,0,0,0,.42-.05l.24.19.25.22a2.17,2.17,0,0,1,.27.32,1,1,0,0,0,0,.1.94.94,0,0,0,0,.13v.07l0,.07a.94.94,0,0,0,0,.13,1.07,1.07,0,0,0,.16.25,1.36,1.36,0,0,0,.17.17l.22.16.17.09.13.05h0l.13,0h0l.12,0h.16l.26,0h0l.12,0h0l.08,0h0a1.2,1.2,0,0,0,.48-1.61A1.24,1.24,0,0,0,154.31,131.47Z"/><path class="cls-3" d="M132.09,103.53a33.21,33.21,0,0,1,3.39-3.56c1.58-1.42,2.69-2.57,3.12-3l.08.08.75.74.42.4.26.25.35.33.09.09.52.47.13.1.1.07h0c.29,0,1-2.77.68-3.27a29.39,29.39,0,0,0-2.1-2.33,11.54,11.54,0,0,0-2.56-2.2h-1.29l-.08,0h-.13l-.13,0h0l-.1,0h0l-.09,0h-.05l-.08,0h0l-.08,0h0l-.07,0h0l-.07,0h0l-.06,0h0l-.06,0h0l-.05,0h0l0,0h0l0,0h0l0,0h0l0,0h0l0,0h0v0h0a.06.06,0,0,0,0,0,33.74,33.74,0,0,0,2.63,2.82l0,0c-.74.78-5,5.22-6.62,6.48l-.17-.12s-8.3,7-10,9.3l-.05.09v0l0,.06v0l0,.06v.15s0,0,0,.07v.16l0,.08v0l0,.1v0l0,.12,0,0,0,.08,0,.06,0,.06,0,.06,0,.06,0,.07,0,.05.05.07,0,0,.06.08,0,0,.11.12,0,0,.07.07h0l.05,0,.06.06.06.05.05,0,.15.12,0,0,.09.06,0,0,.09.06,0,0a2.09,2.09,0,0,0,.43.19h0l.1,0h0a.89.89,0,0,0,.7-.1c.5-.33,8.51-8.58,9.4-9.9Z"/><path class="cls-3" d="M99.51,8.35,92.9,15,82.59,25.28l-1.8-1.8a3,3,0,0,0-4.21-.25,3,3,0,0,0,.25,4.21l5.09,5.09a2.82,2.82,0,1,0,4-4l-1.63-1.63L94.56,16.63,101.18,10a1.18,1.18,0,0,0-1.66-1.66Z"/><path class="cls-3" d="M21.59,86.28,15,92.9,4.66,103.2l-1.8-1.8A3.23,3.23,0,0,0,0,100.46v6l4,4a3,3,0,0,0,4.21.25A3,3,0,0,0,8,106.5l-1.63-1.63L16.63,94.56l6.62-6.62a1.18,1.18,0,0,0-1.66-1.66Z"/><path class="cls-3" d="M138.32,83.12s3.34,2.27,3.55,2.34.58,0,.32-.44-2.33-3.45-2.33-3.45l-5.31-5.31L133,77.81l2.76,2.76-19,19,1.83,1.83,19-19Z"/><path class="cls-3" d="M76.38,53.55h0l0,0,0,0-.1-.05h0l-.08,0h0l-.08,0h0l-.17,0h-.27a2.46,2.46,0,0,1-.67-.67A2.73,2.73,0,0,0,74.2,50L74,49.78h0a4.44,4.44,0,0,0-.88-.46h0l-.14,0h0l-.13,0h-.66l-.1,0h0a2,2,0,0,1-.89-1.09.61.61,0,0,0,.14-.44c-.11-.32-1.52-1.73-2.17-1.75a1.06,1.06,0,0,0-.57.22l-.16.12-.24.21-.31.32L67.7,47a2.91,2.91,0,0,0-.6,1,.44.44,0,0,0,0,.13.66.66,0,0,0,0,.14,1,1,0,0,0,.06.15l.09.15.11.16.13.16.14.16.16.15a3.52,3.52,0,0,0,1.14.77H69l.05,0h0l0,0h0l0,0h0l.12.08.12.08.06,0,.13.1.2.17.2.19.14.16.1.13V51s0,0,0,.06v0s0,0,0,.06v.42l0,.06,0,.05,0,.07,0,.05,0,.07,0,0,0,.08v0c-1.11,1.17-4.88,5.1-6.42,6.27L64,58.15s-8.3,7-10,9.3l-.05.09v0l0,.06v0l0,.06v.15s0,0,0,.07v.16l0,.08v0l0,.1v0l0,.12,0,0,0,.08,0,.06,0,.06,0,.06,0,.06,0,.07,0,.05.05.07,0,0,.06.08,0,0,.11.12,0,0,.07.07.05.05.06.06.06.05.05,0,.15.12,0,0,.09.06,0,0,.09.06,0,0a2.1,2.1,0,0,0,.43.19h0l.1,0h0a.89.89,0,0,0,.7-.1c.5-.33,8.51-8.58,9.4-9.9L65.9,60a33.2,33.2,0,0,1,3.39-3.56c1.37-1.23,2.38-2.25,2.9-2.8l.12,0h0l.14,0h0l.14,0h0l.15,0h0l.15,0h.36a2.11,2.11,0,0,0,.42-.05L74,54l.25.22a2.17,2.17,0,0,1,.27.32,1,1,0,0,0,0,.1,1,1,0,0,0,0,.13v.07l0,.07a.94.94,0,0,0,0,.13,1.07,1.07,0,0,0,.16.25,1.35,1.35,0,0,0,.17.17l.22.16.17.09.13.05h0l.13,0h0l.12,0h.16l.26,0h0l.12,0h0l.08,0h0a1.2,1.2,0,0,0,.48-1.61A1.24,1.24,0,0,0,76.38,53.55Z"/><path class="cls-3" d="M54.17,25.61A33.2,33.2,0,0,1,57.56,22c1.58-1.42,2.69-2.57,3.12-3l.08.08.75.74.42.4.26.25.35.33.09.09.52.47.13.1.1.07h0c.29,0,1-2.77.68-3.27A29.39,29.39,0,0,0,62,15.95a11.54,11.54,0,0,0-2.56-2.2H58.13l-.08,0h-.13l-.13,0h0l-.1,0h0l-.09,0h-.05l-.08,0h0l-.08,0h0l-.07,0h0l-.07,0h0l-.06,0h0l-.06,0h0l-.05,0h0l0,0h0l0,0h0l0,0h0l0,0h0l0,0h0v0h0a.06.06,0,0,0,0,0A33.74,33.74,0,0,0,59,17.35l0,0c-.74.78-5,5.22-6.62,6.48l-.17-.12s-8.3,7-10,9.3l-.05.09v0l0,.06v0l0,.06v.15s0,0,0,.07v.16l0,.08v0l0,.1v0l0,.12,0,0,0,.08,0,.06,0,.06,0,.06,0,.06,0,.07,0,.05.05.07,0,0,.06.08,0,0,.11.12,0,0,.07.07h0L43,35l.06.06.06.05.05,0,.15.12,0,0,.09.06,0,0,.09.06,0,0a2.09,2.09,0,0,0,.43.19h0l.1,0h0a.89.89,0,0,0,.7-.1c.5-.33,8.51-8.58,9.4-9.9Z"/><polygon class="cls-3" points="55.09 155.74 55.21 155.85 58.29 155.85 56.63 154.19 55.09 155.74"/><path class="cls-3" d="M60.4,5.19s3.34,2.27,3.55,2.34.58,0,.32-.44-2.33-3.45-2.33-3.45L58.29,0H55.21l2.64,2.64-19,19,1.83,1.83,19-19Z"/><path class="cls-4" d="M130,117.29c.09-.14.05-.25-.07-.38l-.71-.71c-.15-.15-.24-.16-.36,0-1.72,1.57-4.77,4.88-5.79,4.17-.54-.37-2.75-2.63-4.82-4.81s-3.92-4.19-4-4.32.05-.23.12-.29a.19.19,0,0,0,0-.27L102.92,99.22l-3.32,3.32L111,113.91c.3.29.22-.24.55-.12.12,0,2.31,2.06,4.41,4.05,1.75,1.66,3.43,3.29,3.81,3.75.26.3,1.11,1.11,1.11,1.52,0,1-3.22,4.23-4.78,6C123.28,127.11,129.11,118.65,130,117.29Z"/><path class="cls-4" d="M126.63,144.88l-14.32-14.43-.17-.15-1.95-2,0,0a2.1,2.1,0,0,1,.15-3.43c.76-.5,4.14-2.3,4.14-2.3l-.44-.43c-.45-.07-4.09,1.84-4.09,1.84a48.48,48.48,0,0,0-4.51,4.44c-2.67,3.05-6.32,11.14-6.32,11.14l.52.52,1.84-2.63s4.69-6.4,5.53-7.47c.46-.58.89-.54,1.19-.38l2.24,2.27a2.2,2.2,0,0,0,.18.21l3.11,3.13.81.82h0l9.51,9.58-.11,0,9.83,10s1.75.54,2.07-1.55l-9.18-9.22Z"/><path class="cls-4" d="M152.6,119.5c-1.43-1.56-2.63-2.75-3.33-3.44,0-.57-.71-1.38-1-1.7a.79.79,0,0,0,0-.13.48.48,0,0,0,0-.1v0a.73.73,0,0,0,0-.1h0l0-.12c2.36-1.63,5.1-.44,5.17-.62s-1.85-1.61-3.89-1.87a5.8,5.8,0,0,0-3.25.61.52.52,0,0,0-.31,0c-.9.28-2.29,1.74-2.27,2.35a1,1,0,0,0,.06.28,2.89,2.89,0,0,1-1.81,1.87.52.52,0,0,0-.22-.12c-.44,0-1.13.71-1.05,1.14a.81.81,0,0,0,.15.28,4.56,4.56,0,0,0,.32.39l.08.09.17.18.18.18.19.18c.19.18.38.35.56.49l.17.13.29.2.11.06,0,0a.43.43,0,0,0,.36-.06l.09-.06.09-.07.13-.13.12-.14.07-.1.09-.15,0-.1,0-.09v0a.46.46,0,0,0,0-.08.24.24,0,0,0,0-.07v0h0v0l0,0v0l0,0,0,0,0,0,0,0,0,0h0a1.28,1.28,0,0,1,0-.18l0-.13,0-.07.07-.15.1-.15.06-.08a2.21,2.21,0,0,1,.43-.39l.24-.15.28-.15.31-.13.16.06a.7.7,0,0,0,.41-.05,5.69,5.69,0,0,0,1.64,1.12h.24c1.71,1.65,6,5.88,7.45,7.61l-.12.17.7.79v-3.67C155,121.92,153.79,120.8,152.6,119.5Z"/><path class="cls-4" d="M108.88,135.74h0Z"/><path class="cls-4" d="M108.87,135.75h0l-.05,0h0l-.05,0,0,0,0,0,0,0,0,0,0,0,0,0h-.12c-.39,0-2,1.46-2.79,2.5l0,0a4.12,4.12,0,0,0-.4.59,1.06,1.06,0,0,0-.08.18.31.31,0,0,0,0,.13,7.53,7.53,0,0,0,1.2,1.43l.15.16.31.32.33.34.53.54.37.37.39.39h0c-1,1-6.47,6.79-8.61,8.43l-.22-.17s-2.83,2.4-5.9,5.14H100a33.44,33.44,0,0,0,2.21-2.56l-.09-.15a43.22,43.22,0,0,1,4.41-4.64c2.09-1.88,3.55-3.4,4.09-4l.06.05.12.12.15.14.12.11.17.16.1.09.26.24.69.63a11,11,0,0,0,1.81,1.48h.25l.05,0,0,0,.05,0,0,0,.06,0,0,0,.09-.06h0c1-.64,2.68-2.33,2.58-2.92S110.69,137.18,108.87,135.75Z"/><polygon class="cls-4" points="148.58 9.62 151.2 12.23 155.85 7.58 155.85 2.35 148.58 9.62"/><path class="cls-4" d="M86.39,7.68v.15l0,.1V8l0,.13v0l.06.16,0,.06,0,.1,0,.08,0,.08,0,.08,0,.07.06.09,0,.07L87,9l0,.06.08.1,0,0,.14.15.06.06.09.09.07.07.08.07.08.07.07.06.2.16,0,0,.11.08,0,0,.12.07,0,0a2.72,2.72,0,0,0,.57.25h0l.14,0h0a1.16,1.16,0,0,0,.91-.13C90.41,10,96.52,3.75,100,0H93.69a72,72,0,0,0-7.13,7l-.07.11,0,0,0,.08v0l0,.08v.06s0,.05,0,.08,0,0,0,.06,0,.06,0,.09Z"/><path class="cls-4" d="M133,36v.12l0,.08v0l0,.1v0l0,.12,0,0,0,.08,0,.06,0,.06,0,.06,0,.06,0,.07,0,.05.05.07,0,0,.06.08,0,0,.11.12,0,0,.07.07.05.05.06.06.06.05.05,0,.15.12,0,0,.09.06,0,0,.09.06,0,0a2.09,2.09,0,0,0,.43.19h0l.1,0h0a.89.89,0,0,0,.7-.1c.5-.33,8.51-8.58,9.4-9.9l-.07-.12a33.19,33.19,0,0,1,3.39-3.56c1.58-1.42,2.69-2.57,3.12-3l.08.08.75.74.42.4.26.25.35.33.09.09.52.47.13.1.1.07h0c.29,0,1-2.77.68-3.27-.51-.72-3.82-4.29-4.66-4.53H149l-.07,0h-.13l-.13,0h0l-.1,0h0l-.09,0h-.05l-.08,0h0l-.08,0h0l-.07,0h0l-.07,0h0l-.06,0h0l-.06,0h0l-.05,0h0l0,0h0l0,0h0l0,0h0l0,0h0l0,0h0v0h0a.06.06,0,0,0,0,0,33.76,33.76,0,0,0,2.63,2.82l0,0c-.74.78-5,5.22-6.62,6.48l-.17-.12s-8.3,7-10,9.3l-.05.09v0l0,.06v0l0,.06v.15s0,0,0,.07Z"/><path class="cls-4" d="M55.87,77.7s1.75.54,2.07-1.55l-9.18-9.22-.06,0L34.38,52.52l-.17-.15-1.95-2,0,0A2.1,2.1,0,0,1,32.44,47c.76-.5,4.14-2.3,4.14-2.3l-.44-.43c-.45-.07-4.09,1.84-4.09,1.84a48.48,48.48,0,0,0-4.51,4.44c-2.67,3.05-6.32,11.14-6.32,11.14l.52.52,1.84-2.63s4.69-6.4,5.53-7.47c.46-.58.89-.54,1.19-.38l2.24,2.27a2.21,2.21,0,0,0,.18.21l3.11,3.13.81.82h0l9.51,9.58-.11,0Z"/><path class="cls-4" d="M94,33.23l7-6.91,0-.05,1.64-1.63,9.23-9.15.11-.13,1.47-1.46,0,0c.81-1.22,2.43-.24,2.93.46s2.36,3.74,2.36,3.74l.33-.33a29.36,29.36,0,0,0-2-3.65,57.62,57.62,0,0,0-4.21-4.26C110,7.32,102.79,3.44,102.79,3.44l-.39.39,2.41,1.82s5.89,4.6,6.88,5.42c.54.45.54.81.44,1.05l-1.71,1.68-.16.13-2.36,2.34-.62.61h0L101,23.09l-1,.95,0-.1-7.53,7.38S92.2,32.75,94,33.23Z"/><path class="cls-4" d="M108.34,33.29l-1.54-1.54a2.41,2.41,0,1,0-3.39,3.39l4.36,4.36a2.41,2.41,0,1,0,3.39-3.39l-1.4-1.4,1.44-1.44,13.06-13.06a1,1,0,0,0-1.42-1.42L109.78,31.85Z"/><path class="cls-4" d="M92.29,115.68a1.38,1.38,0,1,0,1.94-1.94l-2.5-2.5a1.38,1.38,0,1,0-1.94,1.94l.8.8-8.3,8.3a.58.58,0,0,0,.82.82l8.3-8.3Z"/><path class="cls-4" d="M73.27,90.16l27.25-27.25,1,1s4.79,3.25,5.08,3.36.83,0,.46-.63-3.34-4.94-3.34-4.94l-7.61-7.61-2.21,2.21,4,4L70.66,87.54Z"/><path class="cls-4" d="M63.2,40.21l.08.09.17.18.18.18.19.18c.19.18.38.35.56.49l.17.13.29.2.11.06,0,0a.43.43,0,0,0,.36-.06l.09-.06.09-.07.13-.13.12-.14.07-.1.09-.15,0-.1,0-.09v0a.46.46,0,0,0,0-.08.24.24,0,0,0,0-.07v0h0v0l0,0v0l0,0,0,0,0,0,0,0,0,0h0a1.28,1.28,0,0,1,0-.18l0-.13L66,40l.07-.15.1-.15.06-.08a2.21,2.21,0,0,1,.43-.39l.24-.15.28-.15.31-.13.16.06a.7.7,0,0,0,.41-.05,5.69,5.69,0,0,0,1.64,1.12h.24c1.71,1.65,6,5.88,7.45,7.61l-.12.17s8.83,10.08,11.56,12.25l.1.07,0,0L89,60l0,0,.07,0h.55l.11,0h0l.13,0,0,0L90,60l.06,0,.07,0,.06,0,.06,0,.07,0,.05,0,.07,0,0,0,.08-.06,0,0,.12-.1,0,0,.07-.07.05-.05L91,59.3l.05-.06,0-.05.11-.15,0,0,.06-.09,0,0,.05-.09,0,0a1.82,1.82,0,0,0,.16-.46h0s0-.07,0-.11h0a1.11,1.11,0,0,0-.2-.79c-.43-.6-10.58-10.51-12.15-11.66l-.12.06a51.42,51.42,0,0,1-4.37-4.2C73.25,40,72,38.82,71.34,38.14c0-.57-.71-1.38-1-1.7a.79.79,0,0,0,0-.13.47.47,0,0,0,0-.1v0a.73.73,0,0,0,0-.1h0l0-.12c2.36-1.63,5.1-.44,5.17-.62s-1.85-1.61-3.89-1.87a5.8,5.8,0,0,0-3.25.61A.52.52,0,0,0,68,34c-.9.28-2.29,1.74-2.27,2.35a1,1,0,0,0,.06.28A2.89,2.89,0,0,1,64,38.53a.52.52,0,0,0-.22-.12c-.44,0-1.13.71-1.05,1.14a.81.81,0,0,0,.15.28A4.55,4.55,0,0,0,63.2,40.21Z"/><path class="cls-4" d="M93.94,134.31l.12-.11.12-.12.12-.13c.12-.13.23-.26.32-.38l.09-.12.13-.2,0-.08v0a.37.37,0,0,0-.08-.28l-.05-.08-.06-.08-.11-.11-.12-.1-.08-.06-.12-.08-.08,0-.07,0h0l-.06,0h-.14l0,0h0l0,0h0l-.14,0-.1,0-.05,0-.12-.07-.12-.09-.06-.05a2.33,2.33,0,0,1-.33-.36l-.14-.19-.13-.22-.12-.24a.53.53,0,0,0,0-.12.59.59,0,0,0-.07-.31,3.14,3.14,0,0,0,.71-1.14.29.29,0,0,0,0,0h0v-.12h0c1.1-1.15,3.93-4.07,5.12-5l.14.1s6.87-5.82,8.28-7.69l0-.07v0l0-.05v-.21s0,0,0-.06v-.13l0-.06v0l0-.08v0l0-.1,0,0,0-.06,0,0,0-.05,0-.05,0,0,0-.06,0,0,0-.06,0,0-.05-.06,0,0-.09-.1,0,0-.06-.06,0,0-.05,0-.05,0,0,0-.13-.1,0,0-.07,0,0,0-.07,0h0a1.73,1.73,0,0,0-.36-.16h0l-.09,0h0a.74.74,0,0,0-.58.08c-.41.28-7,7.1-7.78,8.19l.05.1a27.47,27.47,0,0,1-2.81,2.95c-1.06.95-1.86,1.75-2.31,2.23-.44-.08-1,.42-1.2.64l-.1,0h-.16l-.09,0a5.78,5.78,0,0,1-.91-4,3.84,3.84,0,0,0-1.08,2.78A5.12,5.12,0,0,0,88.8,130a.37.37,0,0,0,0,.23,4.32,4.32,0,0,0,2,1.92.7.7,0,0,0,.2,0,3,3,0,0,1,1.57,1.53.3.3,0,0,0-.07.15c0,.33.63.92.95.89a.47.47,0,0,0,.2-.09,2.44,2.44,0,0,0,.27-.21Z"/><path class="cls-4" d="M114.82,56.66h0l-.05.07h0l0,.06h0l0,0h0l0,0h0l0,0V57h0v0c0,.43,2.62,3.3,3.13,3.13a50.46,50.46,0,0,0,4.63-4.44c1.4,1.35,8.57,8.26,10.7,10.88l-.16.23s11.84,13.52,15.5,16.44l.14.1,0,0,.1.05.06,0,.1,0,.06,0,.1,0h.57l.14,0h0l.17-.05.07,0,.11,0,.08,0,.09,0,.09,0,.08,0,.09-.06.07,0,.1-.07.06,0,.1-.08,0,0,.16-.14.06-.06.09-.09.07-.07.07-.08.07-.08.06-.07.15-.21,0,0,.07-.12,0,0,.07-.12,0,0a2.44,2.44,0,0,0,.22-.61h0c0-.05,0-.1,0-.15v0a1.49,1.49,0,0,0-.27-1.06c-.58-.8-14.19-14.1-16.3-15.64l-.16.08a69,69,0,0,1-5.87-5.64c-2.42-2.63-4.34-4.49-5.07-5.18a2,2,0,0,0,.38-.53h0v0h0l0,0c.2-.34,1.11-1.89,1.81-3.28l.29-.61a9,9,0,0,0,.46-1.15l0-.15v-.07a.93.93,0,0,0,0-.22.23.23,0,0,0,0-.14h0c-.17-.17-.88.08-1.75.48-1.68.76-3.95,2.09-3.95,2.09A65.49,65.49,0,0,0,114.82,56.66Z"/><path class="cls-4" d="M21.87,73l-.22-.17s-10.81,9.15-13,12.11L8.56,85l0,0,0,.08v0l0,.08v.06s0,.05,0,.08,0,0,0,.06,0,.06,0,.09v.21l0,.1v.05l0,.13v0l.06.16,0,.06,0,.1,0,.08,0,.08,0,.08,0,.07.06.09,0,.07.07.09,0,.06.08.1,0,0,.14.15.06.06.09.09.07.07.08.07.08.07.07.06.2.16,0,0,.11.08,0,0,.12.07,0,0a2.72,2.72,0,0,0,.57.25h0l.14,0h0a1.16,1.16,0,0,0,.91-.13c.65-.43,11.08-11.17,12.24-12.89l-.09-.15a43.22,43.22,0,0,1,4.41-4.64c2.09-1.88,3.55-3.4,4.09-4l.06.05.12.12.15.14.12.11.17.16.1.09.26.24.69.63a11,11,0,0,0,1.81,1.48h.25l.05,0,0,0,.05,0,0,0,.06,0,0,0,.09-.06h0c1-.64,2.68-2.33,2.58-2.92s-6.58-7.19-8.4-8.62h0l-.05,0h0l-.05,0,0,0,0,0,0,0,0,0,0,0,0,0h-.12c-.39,0-2,1.46-2.79,2.5l0,0a4.12,4.12,0,0,0-.4.59,1.06,1.06,0,0,0-.08.18.31.31,0,0,0,0,.13,7.53,7.53,0,0,0,1.2,1.43l.15.16.31.32.33.34.53.54.37.37.39.39h0C29.5,65.56,24,71.31,21.87,73Z"/><path class="cls-4" d="M31,57.81h0Z"/><path class="cls-4" d="M72.39,94.12H71.1l-.08,0h-.13l-.13,0h0l-.1,0h0l-.09,0h-.05l-.08,0h0l-.08,0h0l-.07,0h0l-.07,0h0l-.06,0h0l-.06,0h0l-.05,0h0l0,0h0l0,0h0l0,0h0l0,0h0l0,0h0v0h0a.06.06,0,0,0,0,0A33.76,33.76,0,0,0,72,97.71l0,0c-.74.78-5,5.22-6.62,6.48l-.17-.12s-8.3,7-10,9.3l-.05.09v0l0,.06v0l0,.06v.15s0,0,0,.07v.16l0,.08v0l0,.1v0l0,.12,0,0,0,.08,0,.06,0,.06,0,.06,0,.06,0,.07,0,.05.05.07,0,0,.06.08,0,0,.11.12,0,0,.07.07.05.05.06.06.06.05.05,0,.15.12,0,0,.09.06,0,0,.09.06,0,0a2.09,2.09,0,0,0,.43.19h0l.1,0h0a.89.89,0,0,0,.7-.1c.5-.33,8.51-8.58,9.4-9.9l-.07-.12a33.2,33.2,0,0,1,3.39-3.56c1.58-1.42,2.69-2.57,3.12-3l.08.08.75.74.42.4.26.25.35.33.09.09.52.47.13.1.1.07h0c.29,0,1-2.77.68-3.27C76.54,97.93,73.22,94.36,72.39,94.12Z"/><path class="cls-4" d="M33.88,93.42l.11-.13,1.47-1.46,0,0c.81-1.22,2.43-.24,2.93.46s2.36,3.74,2.36,3.74l.33-.33a29.36,29.36,0,0,0-2-3.65,57.63,57.63,0,0,0-4.21-4.26c-2.85-2.56-10.08-6.44-10.08-6.44l-.39.39,2.41,1.82s5.89,4.6,6.88,5.42c.54.45.54.81.44,1.05l-1.71,1.68-.16.13L30,94.2l-.62.61h0L23.09,101l-1,.95,0-.1-7.53,7.38s-.29,1.43,1.51,1.91l7-6.91,0-.05,1.64-1.63Z"/><path class="cls-4" d="M31.84,112.64l1.44-1.44L46.33,98.15a1,1,0,0,0-1.42-1.42L31.85,109.78l-1.44,1.44-1.54-1.54a2.41,2.41,0,1,0-3.39,3.39l4.36,4.36A2.41,2.41,0,1,0,33.24,114Z"/><path class="cls-4" d="M25.84,139.66l-7.61-7.61L16,134.26l4,4L2.35,155.85H7.58l15-15,1,1s4.79,3.25,5.08,3.36.83,0,.46-.63S25.84,139.66,25.84,139.66Z"/><path class="cls-4" d="M10.86,137.85l.1.07,0,0,.07,0,0,0,.07,0h.55l.11,0h0l.13,0,0,0,.08,0,.06,0,.07,0,.06,0,.06,0,.07,0,.05,0,.07,0,0,0,.08-.06,0,0,.12-.1,0,0,.07-.07.05-.05.05-.06.05-.06,0-.05.11-.15,0,0,.06-.09,0,0,.05-.09,0,0a1.82,1.82,0,0,0,.16-.46h0s0-.07,0-.11h0a1.11,1.11,0,0,0-.2-.79c-.43-.6-10.58-10.51-12.15-11.66l-.12.06c-.24-.2-.63-.54-1.12-1v3.67C2.14,128.8,8.6,136,10.86,137.85Z"/><path class="cls-4" d="M57.41,142.23a69,69,0,0,1-5.87-5.64c-2.42-2.63-4.34-4.49-5.07-5.18a2,2,0,0,0,.38-.53h0v0h0l0,0c.2-.34,1.11-1.89,1.81-3.28l.29-.61a9,9,0,0,0,.46-1.15l0-.15v-.07a.93.93,0,0,0,0-.22.23.23,0,0,0,0-.14h0c-.17-.17-.88.08-1.75.48-1.68.76-3.95,2.09-3.95,2.09a65.49,65.49,0,0,0-6.89,6.83h0l-.05.07h0l0,.06h0l0,0h0l0,0h0l0,0v.06h0v0c0,.43,2.62,3.3,3.13,3.13a50.46,50.46,0,0,0,4.63-4.44c1.4,1.35,8.57,8.26,10.7,10.88l-.16.23s5.42,6.19,10.06,11.09h7c-3.93-3.94-12.76-12.48-14.42-13.7Z"/><path class="cls-4" d="M33.6,35.86c.12,0,2.31,2.06,4.41,4.05,1.75,1.66,3.43,3.29,3.81,3.75.26.3,1.11,1.11,1.11,1.52,0,1-3.22,4.23-4.78,6,7.21-2,13-10.46,13.94-11.81.09-.14.05-.25-.07-.38l-.71-.71c-.15-.15-.24-.16-.36,0-1.72,1.57-4.77,4.88-5.79,4.17-.54-.37-2.75-2.63-4.82-4.81s-3.92-4.19-4-4.32.05-.23.12-.29a.19.19,0,0,0,0-.27L25,21.29l-3.32,3.32L33.06,36C33.36,36.27,33.28,35.74,33.6,35.86Z"/><path class="cls-4" d="M12.67,36.05l-8.3,8.3a.58.58,0,0,0,.82.82l8.3-8.3.88.88a1.38,1.38,0,1,0,1.94-1.94l-2.5-2.5a1.38,1.38,0,1,0-1.94,1.94Z"/><polygon class="cls-4" points="2.35 0 0 2.35 0 7.58 7.58 0 2.35 0"/><path class="cls-4" d="M16,47.87c-1.06.95-1.86,1.75-2.31,2.23-.44-.08-1,.42-1.2.64l-.1,0h-.16l-.09,0a5.78,5.78,0,0,1-.91-4,3.84,3.84,0,0,0-1.08,2.78A5.12,5.12,0,0,0,10.87,52a.37.37,0,0,0,0,.23,4.32,4.32,0,0,0,2,1.92.7.7,0,0,0,.2,0,3,3,0,0,1,1.57,1.53.3.3,0,0,0-.07.15c0,.33.63.92.95.89a.47.47,0,0,0,.2-.09,2.44,2.44,0,0,0,.27-.21l.06-.05.12-.11.12-.12.12-.13c.12-.13.23-.26.32-.38l.09-.12.13-.2,0-.08v0a.37.37,0,0,0-.08-.28l-.05-.08-.06-.08-.11-.11-.12-.1-.08-.06-.12-.08-.08,0-.07,0h0l-.06,0h-.14l0,0h0l0,0h0l-.14,0-.1,0-.05,0-.12-.07-.12-.09-.06-.05a2.33,2.33,0,0,1-.33-.36l-.14-.19-.13-.22-.12-.24a.53.53,0,0,0,0-.12.59.59,0,0,0-.07-.31,3.14,3.14,0,0,0,.71-1.14.29.29,0,0,0,0,0h0v-.12h0c1.1-1.15,3.93-4.07,5.12-5l.14.1s6.87-5.82,8.28-7.69l0-.07v0l0-.05v-.21s0,0,0-.06v-.13l0-.06v0l0-.08v0l0-.1,0,0,0-.06,0,0,0-.05,0-.05,0,0,0-.06,0,0,0-.06,0,0-.05-.06,0,0-.09-.1,0,0-.06-.06,0,0-.05,0L28,37l0,0-.13-.1,0,0-.07,0,0,0-.07,0h0a1.73,1.73,0,0,0-.36-.16h0l-.09,0h0a.74.74,0,0,0-.58.08c-.41.28-7,7.1-7.78,8.19l.05.1A27.47,27.47,0,0,1,16,47.87Z"/><path class="cls-4" d="M70.47,5.34l.14.1,0,0,.1.05.06,0,.1,0,.06,0,.1,0h.57l.14,0h0L72,5.51l.07,0,.11,0,.08,0,.09,0,.09,0,.08,0,.09-.06.07,0,.1-.07.06,0,.1-.08,0,0,.16-.14.06-.06.09-.09.07-.07.07-.08.07-.08.06-.07.15-.21,0,0L73.78,4l0,0,.07-.12,0,0a2.44,2.44,0,0,0,.22-.61h0c0-.05,0-.1,0-.15V3a1.49,1.49,0,0,0-.27-1.06C73.75,1.78,73,1,72,0H65A68.23,68.23,0,0,0,70.47,5.34Z"/><path class="cls-5" d="M137.5,123.68,127.28,133.9l-1.09-1.09a1.7,1.7,0,1,0-2.39,2.39l3.08,3.08a1.7,1.7,0,1,0,2.39-2.39l-1-1,10.22-10.22a.72.72,0,0,0-1-1Z"/><path class="cls-5" d="M118.42,150.48a6.25,6.25,0,0,0-3.5.66.56.56,0,0,0-.34,0c-1,.3-2.46,1.88-2.45,2.53a1,1,0,0,0,0,.25c-.54.27-2.26,1.17-2.6,2h8.95l-.36-.35c0-.62-.76-1.49-1.12-1.84a.85.85,0,0,0,0-.14.52.52,0,0,0,0-.1v0a.8.8,0,0,0,0-.11h0l0-.13c2.54-1.76,5.49-.47,5.57-.67S120.61,150.76,118.42,150.48Z"/><path class="cls-5" d="M139.7,20.39c-.47-.64-11.4-11.32-13.09-12.57l-.13.06a55.38,55.38,0,0,1-4.71-4.53C120.43,1.9,119.31.76,118.53,0h-8.95a1,1,0,0,0-.06.12c-.24,1,1.82,2.71,2.54,2.87S114,.92,114.27.42a.92.92,0,0,0,.32-.07,6.13,6.13,0,0,0,1.76,1.21h.26c1.85,1.78,6.52,6.33,8,8.2l-.12.19S134,20.78,137,23.12l.11.08,0,0,.08,0,0,0,.08,0h.05l.08,0h.46l.11,0h0l.14,0,.05,0,.09,0,.06,0,.07,0,.07,0,.06,0,.07,0,.06,0,.08-.05,0,0,.08-.06,0,0,.13-.11,0,0,.07-.07.05-.06.06-.06.06-.07,0-.06.12-.16,0,0,.06-.1,0,0,.05-.1,0,0a2,2,0,0,0,.17-.49h0s0-.08,0-.12h0A1.2,1.2,0,0,0,139.7,20.39Z"/><path class="cls-5" d="M126.18,79.11l2.65-2.65-18-18-.38.38L97.85,46.24c-1-1.49-1.59-3.33-.78-3.83s5.36-.21,6.8-.33c.87-.08.38-.6.38-.6s-5.89-.8-6.76-.69-3.33-.1-5.34,1.8c-1.73,1.64-1.43,2.84-1.31,3.14l-1.6,1.6-.49-.49L86.53,49l3.25,3.25L92,50.09l-.64-.64,1.81-1.81c.83-.68,2.19.07,2.78.47h0L108.6,60.77l-.38.38Z"/><path class="cls-5" d="M48.95,60.35A1.7,1.7,0,1,0,51.34,58l-1-1L60.58,46.76a.72.72,0,0,0-1-1L49.35,56l-1.09-1.09a1.7,1.7,0,1,0-2.39,2.39Z"/><path class="cls-5" d="M48.68,85.75l-.13.06a55.38,55.38,0,0,1-4.71-4.53c-1.54-1.68-2.83-3-3.59-3.7,0-.62-.76-1.49-1.12-1.84a.85.85,0,0,0,0-.14.51.51,0,0,0,0-.1v0a.79.79,0,0,0,0-.11h0l0-.13c2.54-1.76,5.49-.47,5.57-.67s-2-1.73-4.19-2a6.25,6.25,0,0,0-3.5.66.56.56,0,0,0-.34,0c-1,.3-2.46,1.88-2.45,2.53a1,1,0,0,0,0,.25c-.57.28-2.45,1.27-2.66,2.11-.24,1,1.82,2.71,2.54,2.87s1.92-2.08,2.2-2.58a.92.92,0,0,0,.32-.07,6.13,6.13,0,0,0,1.76,1.21h.26c1.85,1.78,6.52,6.33,8,8.2l-.12.19S56.1,98.7,59,101l.11.08,0,0,.08,0,0,0,.08,0h.05l.08,0H60l.11,0h0l.14,0,.05,0,.09,0,.06,0,.07,0,.07,0,.06,0,.07,0,.06,0,.08-.05,0,0,.08-.06,0,0,.13-.11,0,0,.07-.07.05-.06.06-.06.06-.07,0-.06.12-.16,0,0,.06-.1,0,0,.05-.1,0,0a2,2,0,0,0,.17-.49h0s0-.08,0-.12h0a1.2,1.2,0,0,0-.22-.85C61.31,97.67,50.37,87,48.68,85.75Z"/><path class="cls-5" d="M101.08,69.15h0Z"/><path class="cls-5" d="M101.07,69.15h0l0,0h0l0,0,0,0,0,0h0l0,0h-.13a7,7,0,0,0-2.1,1.88l0,0a3.1,3.1,0,0,0-.3.44.8.8,0,0,0-.06.14.24.24,0,0,0,0,.1,5.66,5.66,0,0,0,.9,1.07l.11.12.23.24.25.25.4.4.28.28.29.3h0c-.74.78-4.86,5.1-6.47,6.34l-.16-.12S86,87.29,84.3,89.51l-.05.09v0l0,.06v.25s0,0,0,.07v.16l0,.08v0l0,.1v0l0,.12,0,0,0,.07,0,.06,0,.06,0,.06,0,.06,0,.07,0,.05.05.07,0,0,.06.07,0,0,.1.12,0,0,.07.07.05.05.06.05.06.05.05,0,.15.12,0,0,.09.06,0,0,.09.05,0,0a2,2,0,0,0,.42.19h0l.1,0h0a.87.87,0,0,0,.68-.1c.49-.33,8.33-8.4,9.21-9.69L96,82.23a32.49,32.49,0,0,1,3.32-3.49c1.57-1.41,2.67-2.55,3.07-3l0,0,.09.09.11.11.09.08.13.12.07.07.19.18.52.47A8.25,8.25,0,0,0,105,78h.19l0,0h0l0,0,0,0,0,0,0,0,.07,0h0c.77-.48,2-1.75,1.94-2.2S102.44,70.23,101.07,69.15Z"/><path class="cls-5" d="M32.57,136.81,19.93,124.16c-1-1.49-1.59-3.33-.78-3.83s5.36-.21,6.8-.33c.87-.08.38-.6.38-.6s-5.89-.8-6.76-.69-3.33-.1-5.34,1.8c-1.73,1.64-1.43,2.84-1.31,3.14l-1.6,1.6-.49-.49L8.6,127l3.25,3.25L14.06,128l-.64-.64,1.81-1.81c.83-.68,2.19.07,2.78.47h0L30.68,138.7l-.38.38,16.78,16.78h2.37l1.47-1.47-18-18Z"/><path class="cls-5" d="M23.15,147.07h0Z"/><path class="cls-5" d="M23.14,147.08h0l0,0h0l0,0,0,0,0,0h0l0,0h-.13a7,7,0,0,0-2.1,1.88l0,0a3.11,3.11,0,0,0-.3.44.8.8,0,0,0-.06.14.24.24,0,0,0,0,.1,5.66,5.66,0,0,0,.9,1.07l.11.12.23.24.25.25.4.4.28.28.29.3h0c-.44.46-2.06,2.16-3.64,3.73h3.09c1.09-1,1.86-1.82,2.18-2.17l0,0,.09.09.11.11.09.08.13.12.07.07.19.18.52.47c.53.48,1,.84,1.19,1h.5l0,0,0,0,.07,0h0c.77-.48,2-1.75,1.94-2.2S24.51,148.16,23.14,147.08Z"/><polygon class="cls-5" points="49.44 0 47.07 0 48.26 1.18 49.44 0"/><path class="cls-5" d="M18.1,4.42,18,4.31A32.5,32.5,0,0,1,21.36.82L22.25,0H19.15a37.24,37.24,0,0,1-2.83,2.61l-.16-.12S8,9.36,6.37,11.58l-.05.09v0l0,.06V12s0,0,0,.07v.16l0,.08v0l0,.1v0l0,.12,0,0,0,.07,0,.06,0,.06,0,.06,0,.06,0,.07,0,.05.05.07,0,0,.06.07,0,0,.1.12,0,0L7,13.5l.05.05.06.05.06.05.05,0,.15.12,0,0,.09.06,0,0,.09.05,0,0a2,2,0,0,0,.42.19h0l.1,0h0a.87.87,0,0,0,.68-.1C9.39,13.78,17.23,5.71,18.1,4.42Z"/><path class="cls-5" d="M27,.1h.18l0,0h0l0,0,0,0h-.5A.62.62,0,0,0,27,.1Z"/><path class="cls-6" d="M144.68,149.92c0,.16-2.9,3.32-5.37,5.93h6.74c1.29-1.17,2.23-2,2.33-2,.31-.1.3.1.39.19a.24.24,0,0,0,.35,0l6.74-6.78v-9.48l-11.4,11.43C144.13,149.55,144.78,149.52,144.68,149.92Z"/><path class="cls-6" d="M126.87,155.85h1.47c-.93-.87-1.81-1.71-2.53-2.36A22.46,22.46,0,0,0,126.87,155.85Z"/><path class="cls-6" d="M155.13,90.47v.21c-1.58,1.65-5.63,5.84-7.33,7.14l-.2-.15s-9.84,8.33-11.86,11l-.07.1,0,0,0,.08v0l0,.07v.05s0,.05,0,.08,0,0,0,.05,0,.05,0,.08v.19l0,.09v0l0,.12v0l.06.14,0,.06,0,.09,0,.07,0,.08,0,.07,0,.07.05.08,0,.06.06.08,0,.05.07.09,0,0,.13.14.05.05.08.08.06.06.07.07.07.06.06.05.18.14,0,0,.1.07,0,0,.11.07,0,0a2.48,2.48,0,0,0,.51.23h0l.12,0h0a1.06,1.06,0,0,0,.83-.12c.59-.4,10.09-10.18,11.15-11.74l-.08-.14a39.36,39.36,0,0,1,4-4.22c.73-.65,1.36-1.25,1.9-1.78V89.15a3.26,3.26,0,0,0-.72,1.27A.43.43,0,0,0,155.13,90.47Z"/><path class="cls-6" d="M153.2,85.94c-.06.57,1.9,1.9,2.66,2.39V83.74l-.06,0C154.77,83.36,153.28,85.23,153.2,85.94Z"/><path class="cls-6" d="M98,144.78h0v-.05h0v-.16l0-.07v0l0-.07v0l0-.08v0l0-.08v0l0-.08v0l0-.08,0-.05,0-.08,0-.06,0-.08,0-.06,0-.08,0-.07,0-.07,0-.14v0l0-.1,0,0,0-.09,0-.05,0-.08,0-.05,0-.08,0-.05,0-.07,0-.05,0-.07,0,0,0-.07,0,0,0-.06,0,0,0-.06,0,0,0,0,0,0,0,0,0,0,0,0,0,0,0,0,0,0,0,0h-.08a24,24,0,0,0-2.53,2.33l0,0c-.33-.31-1.24-1.19-2.33-2.26-1.79-1.76-4-4-5-5.15l.11-.16s-8-9.16-10.5-11.13l-.09-.07,0,0-.07,0,0,0-.06,0h-.5l-.1,0h0l-.12,0,0,0-.07,0-.05,0-.06,0-.06,0-.05,0-.06,0,0,0-.06,0,0,0-.07.05,0,0-.11.09,0,0-.06.06,0,0,0,.05,0,.05,0,0-.1.14,0,0-.05.08,0,0,0,.08v0a1.65,1.65,0,0,0-.15.41h0l0,.1h0a1,1,0,0,0,.18.72c.39.54,9.61,9.55,11,10.6l.11-.05a46.68,46.68,0,0,1,4,3.82l1.11,1.19c1.08,1.13,1.9,1.93,2.29,2.29l-.07.07-.66.67-.36.37-.22.23-.3.32-.08.08-.42.47-.09.11-.06.09h0c0,.29,2.91,1.36,3.37,1.06.66-.43,3.88-3.36,4-4.17a.26.26,0,0,0,0-.06Z"/><path class="cls-6" d="M154.42,47.41l0,0-.07,0,0,0-.06,0h-.5l-.1,0h0l-.12,0,0,0-.07,0-.05,0-.06,0-.06,0-.05,0-.06,0,0,0-.06,0,0,0-.07.05,0,0-.11.09,0,0-.06.06,0,0,0,.05,0,.05,0,0-.1.14,0,0-.05.08,0,0,0,.08v0a1.66,1.66,0,0,0-.15.41h0l0,.1h0a1,1,0,0,0,.18.72c.16.22,1.73,1.79,3.64,3.66V48.69c-.53-.51-1-.94-1.34-1.22Z"/><path class="cls-6" d="M142.9,17.13a.32.32,0,0,0,.47,0l.8-.8c.17-.17.17-.29,0-.45-2.25-2.42-6.91-6.8-6.16-8,.53-.87,5.14-5.22,8-7.85h-6.74c-1.54,1.64-2.94,3.07-3.38,3.42s-1.26,1.26-1.77,1.2c-1-.14-3.52-2.47-5.81-4.61h-1.47C131.28,8.52,141.19,15.9,142.9,17.13Z"/><path class="cls-6" d="M137.89,48.36l-.8-.8s-3.7-2.51-3.92-2.59-.64,0-.36.48,2.58,3.82,2.58,3.82l5.87,5.87,1.7-1.7-3.06-3.06,15.95-15.95v-4Z"/><path class="cls-6" d="M153.79,64.35A32.55,32.55,0,0,1,151,61.69c-1-1.06-1.77-1.85-2.2-2.26l0-.08h0l0-.09h0v-.1h0s0-.07,0-.1h0s0-.07,0-.1h0a1.92,1.92,0,0,0,0-.24,1.66,1.66,0,0,0-.07-.3l.11-.15.14-.16a1.08,1.08,0,0,1,.2-.17h.26l.09,0a.55.55,0,0,0,.16-.09l.11-.11.09-.14.05-.11,0-.09v0l0-.09h0s0-.06,0-.08h0a.87.87,0,0,0,0-.09h0a.92.92,0,0,0,0-.19h0l0-.09v0l0-.06h0a1,1,0,0,0-1.17-.47.63.63,0,0,0-.37.3h0v0l0,.07h0l0,.05h0v.05h0a.71.71,0,0,0,0,.12h0s0,0,0,0h0v.05h0V57a1.22,1.22,0,0,1-.42.42,1.67,1.67,0,0,0-1.84.3l-.11.11h0a2.37,2.37,0,0,0-.25.58v0l0,.1v0s0,.06,0,.09v0s0,.06,0,.08,0,0,0,0,0,.05,0,.08V59l0,.07v0l0,.07v0a1,1,0,0,1-.69.54c-.14-.1-.25-.15-.32-.13s-1.09.93-1.05,1.38a.94.94,0,0,0,.2.42l.09.12.16.18.25.24.13.12a2.73,2.73,0,0,0,.77.5l.09,0h.1l.1,0,.1,0,.1-.07.1-.08.1-.09.09-.1a1.81,1.81,0,0,0,.45-.73.12.12,0,0,0,0,0h0v0h0l0,0h0l0,0v0l0,0h0l0-.08,0-.08,0,0,.06-.08.1-.13.12-.12.1-.09.08-.06h.69l.05,0h0c.91.87,4,3.83,4.91,5l-.07.11s1.52,1.73,3.22,3.59v-3c-.93-.88-1.7-1.58-2-1.79Z"/><path class="cls-6" d="M128.91,37.16h0l0,0,0,0-.09,0h0l-.07,0h0l-.07,0h0l-.15,0h-.24a2.21,2.21,0,0,1-.6-.6,2.45,2.45,0,0,0-.67-2.43l-.16-.16h0a4,4,0,0,0-.79-.41h0l-.13,0h0l-.12,0h-.6l-.09,0h0a1.76,1.76,0,0,1-.8-1,.55.55,0,0,0,.13-.39c-.1-.28-1.37-1.56-1.95-1.57h0a1,1,0,0,0-.51.2l-.14.1-.21.18-.28.28-.13.15a2.61,2.61,0,0,0-.54.93.4.4,0,0,0,0,.12.59.59,0,0,0,0,.13.93.93,0,0,0,.05.13l.08.14.1.14.12.14.13.14.14.14a3.16,3.16,0,0,0,1,.69h.16l0,0h0l0,0h0l.11.07.11.07.06,0,.12.09.18.15.18.17.13.15.09.12v.08s0,0,0,.05v.46l0,.06,0,0,0,.06,0,0,0,.06,0,0,0,.07v0c-.85.89-3.41,3.55-5,5-.29.26-.55.48-.76.64l-.15-.11s-7.46,6.31-9,8.35l0,.08v0l0,.06V50s0,0,0,.06v.14l0,.07v0l0,.09v0l0,.11,0,0,0,.07,0,.05,0,.06,0,.06,0,.05,0,.06,0,0,0,.06,0,0,.05.07,0,0,.09.11,0,0,.06.06,0,0,.05.05.05,0,0,0,.14.11,0,0,.08.05,0,0,.08.05,0,0a1.88,1.88,0,0,0,.39.17h0l.09,0h0a.8.8,0,0,0,.63-.09c.45-.3,7.65-7.71,8.45-8.89l-.06-.1c.13-.16.36-.43.64-.76a29.27,29.27,0,0,1,2.4-2.44c1.23-1.1,2.13-2,2.61-2.52l.11,0h0l.12,0h0l.13,0h0l.14,0h0l.13,0h.32a1.9,1.9,0,0,0,.38,0l.22.17.22.2a2,2,0,0,1,.24.28.9.9,0,0,0,0,.09.85.85,0,0,0,0,.12v.12l0,.12a1,1,0,0,0,.14.22l.15.15.2.14.16.08.12,0h0l.12,0h0l.11,0h.14l.24,0h0l.11,0h0l.07,0h0a1.08,1.08,0,0,0,.43-1.45A1.11,1.11,0,0,0,128.91,37.16Z"/><path class="cls-6" d="M133.62,29.61l0,0-.22.23-.12.13-.08.08-.1.11,0,0-.14.16,0,0,0,0h0a2.08,2.08,0,0,0,1.15.36,6.09,6.09,0,0,0,1.38-1.43.09.09,0,0,0,0,0v0h0v0h0v0h0v0h0v0h0v0h0v0h0v0h0v-.26l0,0h0v-.33h0v0h0v0H135a8.22,8.22,0,0,0-.87.8h0c-.3-.28-2-1.92-2.49-2.53l0-.05s-2.75-3.14-3.6-3.81l0,0h-.47l0,0h0l0,0h0l0,0h0l0,0,0,0,0,0,0,0v0l0,0h0l0,0h0l0,0h0a.57.57,0,0,0,0,.14h0v0h0a.35.35,0,0,0,.06.24c.13.19,3.29,3.27,3.78,3.63l0,0a16,16,0,0,1,1.36,1.31C133,29,133.44,29.44,133.62,29.61Z"/><path class="cls-6" d="M65,95.06a.32.32,0,0,0,.47,0l.8-.8c.17-.17.17-.29,0-.45-2.25-2.42-6.91-6.8-6.16-8S70.15,76,70.45,75.89s.3.1.39.19a.24.24,0,0,0,.35,0l12.9-13-4.72-4.72L66.52,71.28c-.32.35.33.32.23.71S59.16,80.43,58,81.34c-.35.28-1.26,1.26-1.77,1.2-1.34-.2-5.86-4.71-8.34-7C51.47,85,63.11,93.71,65,95.06Z"/><path class="cls-6" d="M86,38c0,.09-2.52,2.8-2.91,3.11-.12.09-.42.42-.59.4-.45-.07-1.95-1.57-2.77-2.32,1.19,3.15,5.06,6,5.68,6.47a.11.11,0,0,0,.16,0l.27-.27c.06-.06.06-.1,0-.15-.75-.81-2.3-2.26-2-2.65a43.57,43.57,0,0,1,3.44-3.28c.1,0,.1,0,.13.06a.08.08,0,0,0,.11,0l4.29-4.31-1.57-1.57L85.87,37.8C85.77,37.91,86,37.9,86,38Z"/><path class="cls-6" d="M128,82.23s-2.25,3.07-2.65,3.58c-.22.28-.43.26-.57.18l-1.07-1.09-.09-.1-1.49-1.5-.39-.39h0l-4.56-4.59h.05l-4.71-4.79s-.84-.26-1,.74l4.4,4.42h0l6.87,6.92.08.07.93.94,0,0a1,1,0,0,1-.07,1.64c-.37.24-2,1.1-2,1.1l.21.21a12.71,12.71,0,0,0,2-.88,23.24,23.24,0,0,0,2.16-2.13,30.41,30.41,0,0,0,3-5.34l-.25-.25Z"/><path class="cls-6" d="M112.45,79.7a1.28,1.28,0,0,0-1.8-.11L91.22,99,89.15,97a3.23,3.23,0,1,0-4.54,4.54l5.85,5.85A3.23,3.23,0,1,0,95,102.8l-1.87-1.87L112.56,81.5A1.28,1.28,0,0,0,112.45,79.7Z"/><path class="cls-6" d="M83,107.26l-2-2-21,21-.8-.8s-3.7-2.51-3.92-2.59-.64,0-.36.48,2.58,3.82,2.58,3.82l5.87,5.87,1.7-1.7L62,128.3Z"/><path class="cls-6" d="M57.72,31.42v.14l0,.09v0l0,.12v0l.06.14,0,.06,0,.09,0,.07,0,.08,0,.07,0,.07.05.08,0,.06.06.08,0,.05.07.09,0,0,.13.14.05.05.08.08.06.06.07.07.07.06.06.05.18.14,0,0,.1.07,0,0,.11.07,0,0a2.48,2.48,0,0,0,.51.23h0l.12,0h0a1.06,1.06,0,0,0,.83-.12c.59-.4,10.09-10.18,11.15-11.74L72,22a39.36,39.36,0,0,1,4-4.22c1.52-1.36,2.66-2.51,3.32-3.19.62.12,1.41-.6,1.72-.91l.15.05h.23l.12,0c2.06,2.76,1.11,5.58,1.31,5.69s1.52-1.81,1.55-4a7.33,7.33,0,0,0-1.06-3.6.53.53,0,0,0,0-.34c-.41-1-2.17-2.69-2.83-2.75a.94.94,0,0,0-.24,0c-.35-.6-1.56-2.62-2.43-2.92-1-.36-2.52,1.52-2.6,2.22s2.31,2.17,2.85,2.51a1.09,1.09,0,0,0,.1.33,4.51,4.51,0,0,0-1,1.63.43.43,0,0,0,0,.06v.21c-1.58,1.65-5.63,5.84-7.33,7.14l-.2-.15s-9.84,8.33-11.86,11l-.07.1,0,0,0,.08v0l0,.07v.05s0,.05,0,.08,0,0,0,.05,0,.05,0,.08Z"/><path class="cls-6" d="M83.63,149.62c-.27-.38-6.7-6.65-7.69-7.38l-.08,0a32.55,32.55,0,0,1-2.77-2.66c-1-1.06-1.77-1.85-2.2-2.26l0-.08h0l0-.09h0v-.1h0s0-.07,0-.1h0s0-.07,0-.1h0a1.91,1.91,0,0,0,0-.24,1.66,1.66,0,0,0-.07-.3l.11-.15.14-.15a1.08,1.08,0,0,1,.2-.17h.26l.09,0a.55.55,0,0,0,.16-.09l.11-.11.09-.14.05-.11,0-.09v0l0-.09h0s0-.06,0-.08h0a.87.87,0,0,0,0-.09h0a.91.91,0,0,0,0-.19h0l0-.09v0l0-.06h0a1,1,0,0,0-1.17-.47.63.63,0,0,0-.37.3h0v0l0,.07h0l0,.05h0v.05h0a.71.71,0,0,0,0,.12h0s0,0,0,0h0v.05h0v.06a1.22,1.22,0,0,1-.42.42,1.67,1.67,0,0,0-1.84.3l-.11.11h0a2.37,2.37,0,0,0-.25.58v0l0,.1v0s0,.06,0,.09v0s0,.06,0,.08,0,0,0,0,0,.05,0,.08v.14l0,.07v0l0,.07v0a1,1,0,0,1-.69.54c-.14-.1-.25-.15-.32-.13s-1.09.93-1.05,1.38a.94.94,0,0,0,.2.42l.09.12.16.18.25.24.13.12a2.73,2.73,0,0,0,.77.5l.09,0h.1l.1,0,.1,0,.1-.07.1-.08.1-.09.09-.1a1.81,1.81,0,0,0,.45-.73.12.12,0,0,0,0,0h0v0h0l0,0h0l0,0v0l0,0h0l0-.08,0-.08,0,0,.06-.08.1-.13.12-.13.1-.09.08-.06h.69l.05,0h0c.91.87,4,3.83,4.91,5l-.07.11s5.59,6.38,7.32,7.76l.07,0h0l0,0h0l0,0h.43l.08,0h0l0,0,0,0,0,0,0,0,0,0,0,0,0,0,0,0,0,0,0,0,0,0,.07-.06,0,0,0,0,0,0,0,0,0,0,0,0,.07-.1v0l0-.06v0l0-.06v0a1.15,1.15,0,0,0,.1-.29h0v-.07h0a.82.82,0,0,0,0-.09A.68.68,0,0,0,83.63,149.62Z"/><path class="cls-6" d="M51,115.09h0l0,0,0,0-.09,0h0l-.07,0h0l-.07,0h0l-.15,0H50.3a2.21,2.21,0,0,1-.6-.6,2.46,2.46,0,0,0-.67-2.43l-.17-.16h0a4,4,0,0,0-.79-.41h0l-.13,0h0l-.12,0h-.6l-.09,0h0a1.76,1.76,0,0,1-.8-1,.55.55,0,0,0,.13-.39c-.1-.28-1.37-1.56-1.95-1.57a1,1,0,0,0-.51.2l-.14.1-.21.18-.28.28-.13.15a2.61,2.61,0,0,0-.54.93.4.4,0,0,0,0,.12.6.6,0,0,0,0,.13.93.93,0,0,0,.05.13l.08.14.1.14L43,111l.13.14.14.14a3.16,3.16,0,0,0,1,.69h.16l0,0h0l0,0h0l.11.07.11.07.06,0,.12.09.18.15.18.17.13.15.09.12v.08s0,0,0,.05v.46l0,.06,0,0,0,.06,0,0,0,.06,0,0,0,.07v0c-.85.89-3.41,3.55-5,5-.29.26-.55.48-.76.64l-.15-.11s-7.46,6.31-9,8.35l0,.08v0l0,.06V128s0,0,0,.06v.14l0,.07v0l0,.09v0l0,.11,0,0,0,.07,0,.05,0,.06,0,.06,0,.05,0,.06,0,0,0,.06,0,0,.05.07,0,0,.09.11,0,0,.06.06,0,0,.05.05.05,0,0,0,.14.11,0,0,.08.05,0,0,.08.05,0,0a1.88,1.88,0,0,0,.39.17h0l.09,0h0a.8.8,0,0,0,.63-.09c.45-.3,7.65-7.71,8.45-8.89l-.06-.1c.13-.16.36-.43.64-.76a29.26,29.26,0,0,1,2.4-2.44c1.23-1.1,2.13-2,2.61-2.52l.11,0h0l.12,0h0l.13,0h0l.14,0h0l.13,0h.32a1.9,1.9,0,0,0,.38,0l.22.17.22.2a2,2,0,0,1,.24.28.88.88,0,0,0,0,.09.85.85,0,0,0,0,.12v.12l0,.12a1,1,0,0,0,.14.22l.15.15.2.14L50,117l.12,0h0l.12,0h0l.11,0h.14l.24,0h0l.11,0h0l.07,0h0a1.08,1.08,0,0,0,.43-1.45A1.11,1.11,0,0,0,51,115.09Z"/><path class="cls-6" d="M118,88.63v-.12l0-.05h0l0-.06v0l0,0,0,0,0,0,0,0,0,0,0,0,0,0,0,0,0,0,0,0v0l-.06-.06,0,0,0,0,0,0,0,0,0,0,0,0-.08-.06h0l0,0h0l0,0h0a1.1,1.1,0,0,0-.23-.1h-.07a.47.47,0,0,0-.37.05c-.26.18-4.49,4.53-5,5.22l0,.06a17.5,17.5,0,0,1-1.79,1.88c-.83.75-1.42,1.36-1.64,1.6l0,0-.4-.39-.22-.21-.14-.13-.19-.18,0,0-.28-.25-.07-.05-.05,0h0a2.71,2.71,0,0,0-.36,1.73,13.17,13.17,0,0,0,2.46,2.39h.79l.07,0h.75a0,0,0,0,0,0,0,17.79,17.79,0,0,0-1.39-1.49l0,0c.39-.41,2.62-2.75,3.49-3.42l.09.07a63.76,63.76,0,0,0,5.28-4.9l0,0v-.18s0,0,0,0Z"/><path class="cls-6" d="M55.69,107.53l0,0-.22.23-.12.13-.08.08-.1.11,0,0-.14.16,0,0,0,0h0a2.08,2.08,0,0,0,1.15.36,6.09,6.09,0,0,0,1.38-1.43.09.09,0,0,0,0,0v0h0v0h0v0h0v0h0v0h0v0h0v0h0v0h0v-.26l0,0h0v-.33h0v0h0v0h-.08a8.22,8.22,0,0,0-.87.8h0c-.3-.28-2-1.92-2.49-2.53l0-.05s-2.75-3.14-3.6-3.81l0,0h-.47l0,0h0l0,0h0l0,0h0l0,0,0,0,0,0,0,0v0l0,0h0l0,0h0l0,0h0a.57.57,0,0,0,0,.14h0v0h0a.35.35,0,0,0,.06.24c.13.19,3.29,3.27,3.78,3.63l0,0a16,16,0,0,1,1.36,1.31C55.08,106.94,55.52,107.37,55.69,107.53Z"/><path class="cls-6" d="M20,66.9v0h0v-.05h0v-.16l0-.07v0l0-.07v0l0-.08v0l0-.08v0l0-.08v0l0-.08,0-.05,0-.08,0-.06,0-.08,0-.06,0-.08,0-.07,0-.07,0-.14v0l0-.1,0,0,0-.09,0-.05,0-.08,0-.05,0-.08,0-.05,0-.07,0-.05,0-.07,0,0,0-.07,0,0,0-.06,0,0,0-.06,0,0,0,0,0,0,0,0,0,0,0,0,0,0,0,0,0,0,0,0h-.08a24,24,0,0,0-2.53,2.33l0,0C16,65.86,15.1,65,14,63.91c-1.79-1.76-4-4-5-5.15l.11-.16S3.24,51.85,0,48.69v4.74c2.88,2.81,6.54,6.31,7.4,6.94l.11-.05a46.69,46.69,0,0,1,4,3.82l1.11,1.19c1.08,1.13,1.9,1.93,2.29,2.29l-.07.07-.66.67-.36.37-.22.23-.3.32-.08.08-.42.47L12.7,70l-.06.09h0c0,.29,2.91,1.36,3.37,1.06.66-.43,3.88-3.36,4-4.17a.26.26,0,0,0,0-.06Z"/><polygon class="cls-6" points="0 137.78 0 147.26 6.16 141.06 1.44 136.34 0 137.78"/><path class="cls-6" d="M7.95,115.73c-.11.11.11.11.08.24s-2.52,2.8-2.91,3.11c-.12.09-.42.42-.59.4-.45-.07-1.95-1.57-2.77-2.32,1.19,3.15,5.06,6,5.68,6.47a.11.11,0,0,0,.16,0l.27-.27c.06-.06.06-.1,0-.15-.75-.81-2.3-2.26-2-2.65a43.57,43.57,0,0,1,3.44-3.28c.1,0,.1,0,.13.06a.08.08,0,0,0,.11,0L13.78,113l-1.57-1.57Z"/><path class="cls-6" d="M33.63,152.19l3.65,3.67H39l-4.34-4.41S33.78,151.18,33.63,152.19Z"/><path class="cls-6" d="M1.41,92.47c.62.12,1.41-.6,1.72-.91l.15.05h.23l.12,0c2.06,2.76,1.11,5.58,1.31,5.69s1.52-1.81,1.55-4a7.33,7.33,0,0,0-1.06-3.6.53.53,0,0,0,0-.34c-.41-1-2.17-2.69-2.83-2.75a.94.94,0,0,0-.24,0C2,86,.87,84.11,0,83.74v4.58l.19.12a1.09,1.09,0,0,0,.1.33L0,89.15v4.74C.59,93.32,1.07,92.83,1.41,92.47Z"/><path class="cls-6" d="M38.06.75l6.87,6.92.08.07.93.94,0,0a1,1,0,0,1-.07,1.64c-.37.24-2,1.1-2,1.1l.21.21a12.71,12.71,0,0,0,2-.88A23.24,23.24,0,0,0,48.2,8.63a30.41,30.41,0,0,0,3-5.34L51,3,50.1,4.3s-2.25,3.07-2.65,3.58c-.22.28-.43.26-.57.18L45.8,7l-.09-.1-1.49-1.5L43.84,5h0L39.28.39h.05L39,0H37.28L38,.76Z"/><path class="cls-6" d="M12.53,29.42a3.43,3.43,0,0,0,4.83.29,3.43,3.43,0,0,0-.29-4.83L15.2,23,34.63,3.58a1.28,1.28,0,0,0-.11-1.8,1.28,1.28,0,0,0-1.8-.11L13.29,21.09,11.22,19a3.43,3.43,0,0,0-4.83-.29,3.43,3.43,0,0,0,.29,4.83Z"/><polygon class="cls-6" points="3.07 27.32 0 30.39 0 34.43 5.09 29.34 3.07 27.32"/><path class="cls-6" d="M4.1,73.3l.07,0h0l0,0h0l0,0h.43l.08,0h0l0,0,0,0,0,0,0,0,0,0,0,0,0,0,0,0,0,0,0,0,0,0,.07-.06,0,0,0,0,0,0,0,0,0,0,0,0,.07-.1v0l0-.06v0l0-.06v0a1.15,1.15,0,0,0,.1-.29h0V72.2h0a.82.82,0,0,0,0-.09.68.68,0,0,0-.12-.41c-.19-.27-3.45-3.47-5.7-5.59v3A52.93,52.93,0,0,0,4.1,73.3Z"/><path class="cls-6" d="M31,21.17h.75l.07,0h.75a0,0,0,0,0,0,0,17.79,17.79,0,0,0-1.39-1.49l0,0c.39-.41,2.62-2.75,3.49-3.42l.09.07A63.77,63.77,0,0,0,40,11l0,0v-.18s0,0,0,0v-.15l0-.05h0l0-.06v0l0,0,0,0,0,0,0,0,0,0,0,0,0,0,0,0,0,0,0,0v0L39.69,10l0,0,0,0,0,0,0,0,0,0,0,0-.08-.06h0l0,0h0l0,0h0a1.1,1.1,0,0,0-.23-.1H39a.47.47,0,0,0-.37.05c-.26.18-4.49,4.53-5,5.22l0,.06a17.5,17.5,0,0,1-1.79,1.88c-.83.75-1.42,1.36-1.64,1.6l0,0-.4-.39-.22-.21-.14-.13-.19-.18,0,0L29,17.14l-.07-.05-.05,0h0a2.71,2.71,0,0,0-.36,1.73,13.17,13.17,0,0,0,2.46,2.39Z"/></g></svg>