<svg id="Layer_1" data-name="Layer 1" xmlns="http://www.w3.org/2000/svg" viewBox="0 0 128.69 60.62"><defs><style>.cls-1{fill:#e8e7e7;}.cls-2{fill:#fcaf1e;}.cls-3{fill:#a9abae;}.cls-4{fill:#43c3d8;}</style></defs><title>hnf-logo</title><path class="cls-1" d="M61.22,21a10.15,10.15,0,0,0-3.63-7.8,4.1,4.1,0,0,0,.14-1,3.81,3.81,0,0,0-3.85-3.8h-.18A10.2,10.2,0,0,0,34.83,5.1a10.05,10.05,0,0,0-5.17-1.42,10.21,10.21,0,0,0-9.93,12.55,3.87,3.87,0,0,0-.59,7.07,10.71,10.71,0,0,0-.59,3.4c0,5.62,3,10.2,8.66,10.2,2.09,0,4.26-1.18,4.35-2.58.73,2.09,3.27,3.45,4.17-1s1.23-15.74.86-17.41-6.73-1.31-10-1.45c-.23,0-.33-.09-.33-.36V12.78a.37.37,0,0,1,.33-.41c2.27-.41,16.65-2.77,25.9,1.9-3.35.18-9.75.18-10.83,1.09-.41.36-.36,1.86-.41,2.36-.18,1.68-.23,3.45-.27,5.17,0,4-.09,8.48,1.13,12.29,1.13,3.45,3.54,5.89,7.35,5.4,3.63-.5,5.4-4.17,5.62-7.57a8.8,8.8,0,0,0-.18-2.45A10.39,10.39,0,0,0,61.22,21"/><path class="cls-2" d="M9.08,60.35H7.57V54.41A4.84,4.84,0,0,0,7,51.69a2.12,2.12,0,0,0-1.85-.91A3.59,3.59,0,0,0,3.94,51a3.26,3.26,0,0,0-1.08.63,4.27,4.27,0,0,0-.85,1,2.08,2.08,0,0,0-.49,1.22v6.53H0V45.47H1.51V52.1a3.79,3.79,0,0,1,1.71-1.9,4.43,4.43,0,0,1,2.42-.68,3.37,3.37,0,0,1,1.57.32,2.63,2.63,0,0,1,1,1,4.65,4.65,0,0,1,.61,1.45,8.17,8.17,0,0,1,.21,1.9Zm5.66.27a4,4,0,0,1-1.5-.27,3.52,3.52,0,0,1-2-1.77A3,3,0,0,1,11,57.31a2.73,2.73,0,0,1,.32-1.36,3.34,3.34,0,0,1,.91-1,5.42,5.42,0,0,1,1.45-.68A7.73,7.73,0,0,1,15.55,54a9.79,9.79,0,0,1,1.62.14,8.15,8.15,0,0,1,1.49.41v-1a3.16,3.16,0,0,0-.81-2.27,2.93,2.93,0,0,0-2.17-.82,4.61,4.61,0,0,0-1.72.32,8.15,8.15,0,0,0-1.72,1l-.5-.91a8.67,8.67,0,0,1,2-1,6.47,6.47,0,0,1,2-.36A4.32,4.32,0,0,1,19,50.6a4.24,4.24,0,0,1,1.18,3.13v4.85c0,.36,0,.59.5.59v1.22l-.41,0H20a1.49,1.49,0,0,1-.77-.18.84.84,0,0,1-.36-.7l0-.85A4.26,4.26,0,0,1,17,60.07a5.74,5.74,0,0,1-2.27.55m.36-1.09A4.59,4.59,0,0,0,17,59.12,4,4,0,0,0,18.41,58a1.63,1.63,0,0,0,.19-.41.65.65,0,0,0,.06-.41V55.45A8.5,8.5,0,0,0,17.24,55a8.24,8.24,0,0,0-1.48-.14,4.43,4.43,0,0,0-2.44.59,1.88,1.88,0,0,0-.95,1.68,2,2,0,0,0,.18.86,1.62,1.62,0,0,0,.5.73,2.57,2.57,0,0,0,.82.54,2.79,2.79,0,0,0,1.22.23m24,.82H37.83V54.41a4.88,4.88,0,0,0-.64-2.77,2.08,2.08,0,0,0-1.79-.91A3.48,3.48,0,0,0,34.2,51a3.43,3.43,0,0,0-1,.63,3.66,3.66,0,0,0-.85,1c-.23.36-.32.77-.58,1.22v6.53H30.52v-6a4.78,4.78,0,0,0-.63-2.77,1.94,1.94,0,0,0-1.79-.86,3.19,3.19,0,0,0-2.22.86,4.55,4.55,0,0,0-1.41,2.22v6.53H23.2V49.76h1.26v2.38a5.48,5.48,0,0,1,1.74-1.9,4.34,4.34,0,0,1,2.36-.68,3.11,3.11,0,0,1,2.18.77,3.37,3.37,0,0,1,1,2,4.59,4.59,0,0,1,4.17-2.77,3,3,0,0,1,1.5.32,2.52,2.52,0,0,1,1,1,3.71,3.71,0,0,1,.52,1.45,8.52,8.52,0,0,1,.16,1.9Zm18.91,0h-1.5V54.41A5,5,0,0,0,56,51.64a2,2,0,0,0-1.74-.91,3.15,3.15,0,0,0-2.16.86,3.57,3.57,0,0,0-.82,1c-.23.36-.29.77-.54,1.22v6.53H49.18v-6a4.89,4.89,0,0,0-.53-2.77,1.86,1.86,0,0,0-1.74-.86,3.08,3.08,0,0,0-2.17.86,4.48,4.48,0,0,0-1.35,2.22v6.53H41.87V49.76h1.51v2.38A3.69,3.69,0,0,1,45,50.24a4.23,4.23,0,0,1,2.33-.68,3.07,3.07,0,0,1,2.16.77,3.36,3.36,0,0,1,1,2,4.58,4.58,0,0,1,4.17-2.77,3,3,0,0,1,1.49.32,2.51,2.51,0,0,1,1,1,3.79,3.79,0,0,1,.59,1.45,8.43,8.43,0,0,1,.23,1.9v6.17Zm7.57.27a5.06,5.06,0,0,1-2.18-.45,5.53,5.53,0,0,1-2.86-3A5.8,5.8,0,0,1,60.13,55a5.57,5.57,0,0,1,.41-2.13,5.12,5.12,0,0,1,1.13-1.77,5.36,5.36,0,0,1,1.68-1.18,5.23,5.23,0,0,1,4.26,0,5,5,0,0,1,1.68,1.22,5.91,5.91,0,0,1,1.13,1.77A5.55,5.55,0,0,1,70.87,55v.32c0,.09-.08.24-.13.24H61.67a5,5,0,0,0,.41,1.58,4.17,4.17,0,0,0,.86,1.27,3.62,3.62,0,0,0,1.22.81,4,4,0,0,0,1.45.32,3.87,3.87,0,0,0,1-.14,3,3,0,0,0,1-.41,4.91,4.91,0,0,0,.77-.59,3,3,0,0,0,.54-.77l1.22.32A4.43,4.43,0,0,1,69.47,59a6.6,6.6,0,0,1-1,.86,5.42,5.42,0,0,1-2.86.73m4-6.17a3.76,3.76,0,0,0-.43-1.59,4.66,4.66,0,0,0-.87-1.23,4.48,4.48,0,0,0-1.23-.82,4,4,0,0,0-1.5-.27,4.17,4.17,0,0,0-1.5.27,3.64,3.64,0,0,0-1.22.82A4.33,4.33,0,0,0,62,52.81a4.42,4.42,0,0,0-.36,1.49h8Zm8.83-3.54a4.37,4.37,0,0,0-2.49.77,4,4,0,0,0-1.54,2v6.62H72.89V49.76H74.4v2.52a4.8,4.8,0,0,1,1.39-2,3,3,0,0,1,1.89-.82h.76Z"/><path class="cls-3" d="M90.79,60.39l-2-2.13a6.26,6.26,0,0,1-1.94,1.68,5.43,5.43,0,0,1-2.58.63,5.19,5.19,0,0,1-1.68-.27,4.82,4.82,0,0,1-1.45-.72,3.55,3.55,0,0,1-1-1.18,3,3,0,0,1-.36-1.59A3.31,3.31,0,0,1,80,55.45a4.62,4.62,0,0,1,.73-1.18,7.73,7.73,0,0,1,1.09-1c.41-.32.86-.64,1.31-1-.41-.45-.77-.82-1-1.18a7.81,7.81,0,0,1-.68-1,2.16,2.16,0,0,1-.36-.82A2.24,2.24,0,0,1,81,48.6a2.64,2.64,0,0,1,.27-1.18,2.55,2.55,0,0,1,.77-1,4.73,4.73,0,0,1,1.13-.68,3.45,3.45,0,0,1,1.36-.23,4,4,0,0,1,1.27.23,2.79,2.79,0,0,1,1,.59,3.18,3.18,0,0,1,.68.86,2.69,2.69,0,0,1,.23,1,2.65,2.65,0,0,1-.27,1.18,4.17,4.17,0,0,1-.77,1,12.68,12.68,0,0,1-1.13,1,13.42,13.42,0,0,1-1.31.91l4.67,4.85a8.34,8.34,0,0,0,.73-1.85,7.76,7.76,0,0,0,.27-2.08h.63a7.93,7.93,0,0,1-.32,2.31,8.38,8.38,0,0,1-.91,2.06l2.59,2.7H90.79ZM84.34,60a4.39,4.39,0,0,0,2.31-.59,5.25,5.25,0,0,0,1.72-1.59l-4.85-5.08-1.23.86a6.74,6.74,0,0,0-1,1,5.13,5.13,0,0,0-.68,1,2.69,2.69,0,0,0-.23,1.23,2.82,2.82,0,0,0,.36,1.41,3.19,3.19,0,0,0,.91,1,4.09,4.09,0,0,0,1.27.59,5.2,5.2,0,0,0,1.41.18M81.58,48.65a2.28,2.28,0,0,0,.09.54,2.21,2.21,0,0,0,.32.68,6.93,6.93,0,0,0,.64.91A11.87,11.87,0,0,0,83.71,52q.75-.48,1.36-1a10.65,10.65,0,0,0,1-.86,3.47,3.47,0,0,0,.63-.86,2.42,2.42,0,0,0,.23-1,1.87,1.87,0,0,0-.73-1.54,2.73,2.73,0,0,0-1.81-.59,3.15,3.15,0,0,0-1.13.18,3,3,0,0,0-.91.54,2.34,2.34,0,0,0-.59.77,3.53,3.53,0,0,0-.18,1"/><path class="cls-4" d="M104.12,60.21l-.18.09a1.34,1.34,0,0,1-.45.09,2.36,2.36,0,0,1-.64.09,3.43,3.43,0,0,1-.68,0,1.87,1.87,0,0,1-1.52-.59,1.9,1.9,0,0,1-.52-1.36V48.65a3.94,3.94,0,0,0-.11-.77,2.22,2.22,0,0,0-.37-.73,2,2,0,0,0-.69-.54,2.37,2.37,0,0,0-1-.23,2,2,0,0,0-1.77,1,3.87,3.87,0,0,0-.41,1,4.56,4.56,0,0,0-.14,1.13v1.26h2.27V52H95.58v8.32H94.07V52H92.81V50.77h1.26V49.24a6.87,6.87,0,0,1,.28-1.68,3.07,3.07,0,0,1,.71-1.31,3.38,3.38,0,0,1,1.19-.86,3.65,3.65,0,0,1,1.64-.32,5.6,5.6,0,0,1,1.59.23A3.25,3.25,0,0,1,101.36,47a4,4,0,0,1,.28,1.27V58a1.52,1.52,0,0,0,.22.86.9.9,0,0,0,.83.41,3.85,3.85,0,0,0,.76-.09,1.45,1.45,0,0,1,.4-.09Zm4.67.41a2.89,2.89,0,0,1-2.52-1.18,5.69,5.69,0,0,1-.84-3.45V49.76h1.26v6c0,2.45.87,3.63,2.55,3.63a4,4,0,0,0,1.25-.23,3.23,3.23,0,0,0,1.1-.59,8.94,8.94,0,0,0,1-.91,10.63,10.63,0,0,0,.69-1.23V49.76h1.26v8.82a.55.55,0,0,0,.5.59v1.22a3,3,0,0,1-.57,0,1.35,1.35,0,0,1-.85-.27.93.93,0,0,1-.35-.73V58a5.55,5.55,0,0,1-1.86,1.95,5,5,0,0,1-2.59.68m18-14.24a2.16,2.16,0,0,0-1.09.27,2.11,2.11,0,0,0-.73.68,3,3,0,0,0-.35,1,4.2,4.2,0,0,0-.08,1V51h3.28v1h-3.28v8.32h-1.51V52H119.8v8.32h-1.51V52h-1.51V51h1.51V50a5.41,5.41,0,0,1,.19-1.5,4.34,4.34,0,0,1,.6-1.32,3.2,3.2,0,0,1,1-.91,3,3,0,0,1,1.45-.32,4.27,4.27,0,0,1,1.36.18,7.9,7.9,0,0,1,1,.36,2.76,2.76,0,0,1,1.09-1,3.61,3.61,0,0,1,1.63-.36,4.08,4.08,0,0,1,.82.09,4.77,4.77,0,0,1,.59.18,1.68,1.68,0,0,1,.41.23,2.34,2.34,0,0,1,.27.18l-.41,1a2.83,2.83,0,0,0-.54-.32,2.1,2.1,0,0,0-.91-.18m-3.76,3.13a8.23,8.23,0,0,1,.09-1,3,3,0,0,1,.32-1,1.63,1.63,0,0,0-.82-.32,6.19,6.19,0,0,0-.86-.09,1.73,1.73,0,0,0-1,.27,2.28,2.28,0,0,0-.63.68,3.09,3.09,0,0,0-.32.91,3.16,3.16,0,0,0,0,.91V51h3.28Z"/></svg>